<svg width="500" height="500" viewBox="0 0 500 500" fill="none" xmlns="http://www.w3.org/2000/svg">
<g id="pq-p">
<path id="p" d="M206.623 373.765C209.595 373.765 212.36 373.765 214.917 373.765C217.474 373.765 220.239 373.765 223.211 373.765C223.211 370.724 223.211 367.959 223.211 365.471C223.211 362.982 223.211 360.218 223.211 357.176C220.239 357.176 217.474 357.176 214.917 357.176C212.36 357.176 209.595 357.176 206.623 357.176C206.623 360.218 206.623 362.982 206.623 365.471C206.623 367.959 206.623 370.724 206.623 373.765ZM206.623 373.765C209.595 373.765 212.36 373.765 214.917 373.765C217.474 373.765 220.239 373.765 223.211 373.765C223.211 370.724 223.211 367.959 223.211 365.471C223.211 362.982 223.211 360.218 223.211 357.176C220.239 357.176 217.474 357.176 214.917 357.176C212.36 357.176 209.595 357.176 206.623 357.176C206.623 360.218 206.623 362.982 206.623 365.471C206.623 367.959 206.623 370.724 206.623 373.765ZM206.623 373.765C209.595 373.765 212.36 373.765 214.917 373.765C217.474 373.765 220.239 373.765 223.211 373.765C223.211 370.724 223.211 367.959 223.211 365.471C223.211 362.982 223.211 360.218 223.211 357.176C220.239 357.176 217.474 357.176 214.917 357.176C212.36 357.176 209.595 357.176 206.623 357.176C206.623 360.218 206.623 362.982 206.623 365.471C206.623 367.959 206.623 370.724 206.623 373.765ZM206.623 373.765C209.595 373.765 212.36 373.765 214.917 373.765C217.474 373.765 220.239 373.765 223.211 373.765C223.211 370.724 223.211 367.959 223.211 365.471C223.211 362.982 223.211 360.218 223.211 357.176C220.239 357.176 217.474 357.176 214.917 357.176C212.36 357.176 209.595 357.176 206.623 357.176C206.623 360.218 206.623 362.982 206.623 365.471C206.623 367.959 206.623 370.724 206.623 373.765ZM206.623 373.765C209.595 373.765 212.36 373.765 214.917 373.765C217.474 373.765 220.239 373.765 223.211 373.765C223.211 370.724 223.211 367.959 223.211 365.471C223.211 362.982 223.211 360.218 223.211 357.176C220.239 357.176 217.474 357.176 214.917 357.176C212.36 357.176 209.595 357.176 206.623 357.176C206.623 360.218 206.623 362.982 206.623 365.471C206.623 367.959 206.623 370.724 206.623 373.765ZM206.623 373.765C209.595 373.765 212.36 373.765 214.917 373.765C217.474 373.765 220.239 373.765 223.211 373.765C223.211 370.724 223.211 367.959 223.211 365.471C223.211 362.982 223.211 360.218 223.211 357.176C220.239 357.176 217.474 357.176 214.917 357.176C212.36 357.176 209.595 357.176 206.623 357.176C206.623 360.218 206.623 362.982 206.623 365.471C206.623 367.959 206.623 370.724 206.623 373.765ZM206.623 373.765C209.595 373.765 212.36 373.765 214.917 373.765C217.474 373.765 220.239 373.765 223.211 373.765C223.211 370.724 223.211 367.959 223.211 365.471C223.211 362.982 223.211 360.218 223.211 357.176C220.239 357.176 217.474 357.176 214.917 357.176C212.36 357.176 209.595 357.176 206.623 357.176C206.623 360.218 206.623 362.982 206.623 365.471C206.623 367.959 206.623 370.724 206.623 373.765ZM206.623 373.765C209.595 373.765 212.36 373.765 214.917 373.765C217.474 373.765 220.239 373.765 223.211 373.765C223.211 370.724 223.211 367.959 223.211 365.471C223.211 362.982 223.211 360.218 223.211 357.176C220.239 357.176 217.474 357.176 214.917 357.176C212.36 357.176 209.595 357.176 206.623 357.176C206.623 360.218 206.623 362.982 206.623 365.471C206.623 367.959 206.623 370.724 206.623 373.765ZM206.623 373.765C209.595 373.765 212.36 373.765 214.917 373.765C217.474 373.765 220.239 373.765 223.211 373.765C223.211 370.724 223.211 367.959 223.211 365.471C223.211 362.982 223.211 360.218 223.211 357.176C220.239 357.176 217.474 357.176 214.917 357.176C212.36 357.176 209.595 357.176 206.623 357.176C206.623 360.218 206.623 362.982 206.623 365.471C206.623 367.959 206.623 370.724 206.623 373.765ZM206.623 357.176C209.595 357.176 212.36 357.176 214.917 357.176C217.474 357.176 220.239 357.176 223.211 357.176C223.211 354.135 223.211 351.371 223.211 348.882C223.211 346.394 223.211 343.629 223.211 340.588C220.239 340.588 217.474 340.588 214.917 340.588C212.36 340.588 209.595 340.588 206.623 340.588C206.623 343.629 206.623 346.394 206.623 348.882C206.623 351.371 206.623 354.135 206.623 357.176ZM206.623 357.176C209.595 357.176 212.36 357.176 214.917 357.176C217.474 357.176 220.239 357.176 223.211 357.176C223.211 354.135 223.211 351.371 223.211 348.882C223.211 346.394 223.211 343.629 223.211 340.588C220.239 340.588 217.474 340.588 214.917 340.588C212.36 340.588 209.595 340.588 206.623 340.588C206.623 343.629 206.623 346.394 206.623 348.882C206.623 351.371 206.623 354.135 206.623 357.176ZM206.623 357.176C209.595 357.176 212.36 357.176 214.917 357.176C217.474 357.176 220.239 357.176 223.211 357.176C223.211 354.135 223.211 351.371 223.211 348.882C223.211 346.394 223.211 343.629 223.211 340.588C220.239 340.588 217.474 340.588 214.917 340.588C212.36 340.588 209.595 340.588 206.623 340.588C206.623 343.629 206.623 346.394 206.623 348.882C206.623 351.371 206.623 354.135 206.623 357.176ZM206.623 357.176C209.595 357.176 212.36 357.176 214.917 357.176C217.474 357.176 220.239 357.176 223.211 357.176C223.211 354.135 223.211 351.371 223.211 348.882C223.211 346.394 223.211 343.629 223.211 340.588C220.239 340.588 217.474 340.588 214.917 340.588C212.36 340.588 209.595 340.588 206.623 340.588C206.623 343.629 206.623 346.394 206.623 348.882C206.623 351.371 206.623 354.135 206.623 357.176ZM206.623 357.176C209.595 357.176 212.36 357.176 214.917 357.176C217.474 357.176 220.239 357.176 223.211 357.176C223.211 354.135 223.211 351.371 223.211 348.882C223.211 346.394 223.211 343.629 223.211 340.588C220.239 340.588 217.474 340.588 214.917 340.588C212.36 340.588 209.595 340.588 206.623 340.588C206.623 343.629 206.623 346.394 206.623 348.882C206.623 351.371 206.623 354.135 206.623 357.176ZM206.623 357.176C209.595 357.176 212.36 357.176 214.917 357.176C217.474 357.176 220.239 357.176 223.211 357.176C223.211 354.135 223.211 351.371 223.211 348.882C223.211 346.394 223.211 343.629 223.211 340.588C220.239 340.588 217.474 340.588 214.917 340.588C212.36 340.588 209.595 340.588 206.623 340.588C206.623 343.629 206.623 346.394 206.623 348.882C206.623 351.371 206.623 354.135 206.623 357.176ZM206.623 357.176C209.595 357.176 212.36 357.176 214.917 357.176C217.474 357.176 220.239 357.176 223.211 357.176C223.211 354.135 223.211 351.371 223.211 348.882C223.211 346.394 223.211 343.629 223.211 340.588C220.239 340.588 217.474 340.588 214.917 340.588C212.36 340.588 209.595 340.588 206.623 340.588C206.623 343.629 206.623 346.394 206.623 348.882C206.623 351.371 206.623 354.135 206.623 357.176ZM206.623 357.176C209.595 357.176 212.36 357.176 214.917 357.176C217.474 357.176 220.239 357.176 223.211 357.176C223.211 354.135 223.211 351.371 223.211 348.882C223.211 346.394 223.211 343.629 223.211 340.588C220.239 340.588 217.474 340.588 214.917 340.588C212.36 340.588 209.595 340.588 206.623 340.588C206.623 343.629 206.623 346.394 206.623 348.882C206.623 351.371 206.623 354.135 206.623 357.176ZM206.623 357.176C209.595 357.176 212.36 357.176 214.917 357.176C217.474 357.176 220.239 357.176 223.211 357.176C223.211 354.135 223.211 351.371 223.211 348.882C223.211 346.394 223.211 343.629 223.211 340.588C220.239 340.588 217.474 340.588 214.917 340.588C212.36 340.588 209.595 340.588 206.623 340.588C206.623 343.629 206.623 346.394 206.623 348.882C206.623 351.371 206.623 354.135 206.623 357.176ZM206.623 340.588C209.595 340.588 212.36 340.588 214.917 340.588C217.474 340.588 220.239 340.588 223.211 340.588C223.211 337.547 223.211 334.782 223.211 332.294C223.211 329.806 223.211 327.041 223.211 324C220.239 324 217.474 324 214.917 324C212.36 324 209.595 324 206.623 324C206.623 327.041 206.623 329.806 206.623 332.294C206.623 334.782 206.623 337.547 206.623 340.588ZM206.623 340.588C209.595 340.588 212.36 340.588 214.917 340.588C217.474 340.588 220.239 340.588 223.211 340.588C223.211 337.547 223.211 334.782 223.211 332.294C223.211 329.806 223.211 327.041 223.211 324C220.239 324 217.474 324 214.917 324C212.36 324 209.595 324 206.623 324C206.623 327.041 206.623 329.806 206.623 332.294C206.623 334.782 206.623 337.547 206.623 340.588ZM206.623 340.588C209.595 340.588 212.36 340.588 214.917 340.588C217.474 340.588 220.239 340.588 223.211 340.588C223.211 337.547 223.211 334.782 223.211 332.294C223.211 329.806 223.211 327.041 223.211 324C220.239 324 217.474 324 214.917 324C212.36 324 209.595 324 206.623 324C206.623 327.041 206.623 329.806 206.623 332.294C206.623 334.782 206.623 337.547 206.623 340.588ZM206.623 340.588C209.595 340.588 212.36 340.588 214.917 340.588C217.474 340.588 220.239 340.588 223.211 340.588C223.211 337.547 223.211 334.782 223.211 332.294C223.211 329.806 223.211 327.041 223.211 324C220.239 324 217.474 324 214.917 324C212.36 324 209.595 324 206.623 324C206.623 327.041 206.623 329.806 206.623 332.294C206.623 334.782 206.623 337.547 206.623 340.588ZM206.623 340.588C209.595 340.588 212.36 340.588 214.917 340.588C217.474 340.588 220.239 340.588 223.211 340.588C223.211 337.547 223.211 334.782 223.211 332.294C223.211 329.806 223.211 327.041 223.211 324C220.239 324 217.474 324 214.917 324C212.36 324 209.595 324 206.623 324C206.623 327.041 206.623 329.806 206.623 332.294C206.623 334.782 206.623 337.547 206.623 340.588ZM206.623 340.588C209.595 340.588 212.36 340.588 214.917 340.588C217.474 340.588 220.239 340.588 223.211 340.588C223.211 337.547 223.211 334.782 223.211 332.294C223.211 329.806 223.211 327.041 223.211 324C220.239 324 217.474 324 214.917 324C212.36 324 209.595 324 206.623 324C206.623 327.041 206.623 329.806 206.623 332.294C206.623 334.782 206.623 337.547 206.623 340.588ZM206.623 340.588C209.595 340.588 212.36 340.588 214.917 340.588C217.474 340.588 220.239 340.588 223.211 340.588C223.211 337.547 223.211 334.782 223.211 332.294C223.211 329.806 223.211 327.041 223.211 324C220.239 324 217.474 324 214.917 324C212.36 324 209.595 324 206.623 324C206.623 327.041 206.623 329.806 206.623 332.294C206.623 334.782 206.623 337.547 206.623 340.588ZM206.623 340.588C209.595 340.588 212.36 340.588 214.917 340.588C217.474 340.588 220.239 340.588 223.211 340.588C223.211 337.547 223.211 334.782 223.211 332.294C223.211 329.806 223.211 327.041 223.211 324C220.239 324 217.474 324 214.917 324C212.36 324 209.595 324 206.623 324C206.623 327.041 206.623 329.806 206.623 332.294C206.623 334.782 206.623 337.547 206.623 340.588ZM206.623 340.588C209.595 340.588 212.36 340.588 214.917 340.588C217.474 340.588 220.239 340.588 223.211 340.588C223.211 337.547 223.211 334.782 223.211 332.294C223.211 329.806 223.211 327.041 223.211 324C220.239 324 217.474 324 214.917 324C212.36 324 209.595 324 206.623 324C206.623 327.041 206.623 329.806 206.623 332.294C206.623 334.782 206.623 337.547 206.623 340.588ZM206.623 324C209.595 324 212.36 324 214.917 324C217.474 324 220.239 324 223.211 324C223.211 320.959 223.211 318.194 223.211 315.706C223.211 313.218 223.211 310.453 223.211 307.412C220.239 307.412 217.474 307.412 214.917 307.412C212.36 307.412 209.595 307.412 206.623 307.412C206.623 310.453 206.623 313.218 206.623 315.706C206.623 318.194 206.623 320.959 206.623 324ZM206.623 324C209.595 324 212.36 324 214.917 324C217.474 324 220.239 324 223.211 324C223.211 320.959 223.211 318.194 223.211 315.706C223.211 313.218 223.211 310.453 223.211 307.412C220.239 307.412 217.474 307.412 214.917 307.412C212.36 307.412 209.595 307.412 206.623 307.412C206.623 310.453 206.623 313.218 206.623 315.706C206.623 318.194 206.623 320.959 206.623 324ZM206.623 324C209.595 324 212.36 324 214.917 324C217.474 324 220.239 324 223.211 324C223.211 320.959 223.211 318.194 223.211 315.706C223.211 313.218 223.211 310.453 223.211 307.412C220.239 307.412 217.474 307.412 214.917 307.412C212.36 307.412 209.595 307.412 206.623 307.412C206.623 310.453 206.623 313.218 206.623 315.706C206.623 318.194 206.623 320.959 206.623 324ZM206.623 324C209.595 324 212.36 324 214.917 324C217.474 324 220.239 324 223.211 324C223.211 320.959 223.211 318.194 223.211 315.706C223.211 313.218 223.211 310.453 223.211 307.412C220.239 307.412 217.474 307.412 214.917 307.412C212.36 307.412 209.595 307.412 206.623 307.412C206.623 310.453 206.623 313.218 206.623 315.706C206.623 318.194 206.623 320.959 206.623 324ZM206.623 324C209.595 324 212.36 324 214.917 324C217.474 324 220.239 324 223.211 324C223.211 320.959 223.211 318.194 223.211 315.706C223.211 313.218 223.211 310.453 223.211 307.412C220.239 307.412 217.474 307.412 214.917 307.412C212.36 307.412 209.595 307.412 206.623 307.412C206.623 310.453 206.623 313.218 206.623 315.706C206.623 318.194 206.623 320.959 206.623 324ZM206.623 324C209.595 324 212.36 324 214.917 324C217.474 324 220.239 324 223.211 324C223.211 320.959 223.211 318.194 223.211 315.706C223.211 313.218 223.211 310.453 223.211 307.412C220.239 307.412 217.474 307.412 214.917 307.412C212.36 307.412 209.595 307.412 206.623 307.412C206.623 310.453 206.623 313.218 206.623 315.706C206.623 318.194 206.623 320.959 206.623 324ZM206.623 324C209.595 324 212.36 324 214.917 324C217.474 324 220.239 324 223.211 324C223.211 320.959 223.211 318.194 223.211 315.706C223.211 313.218 223.211 310.453 223.211 307.412C220.239 307.412 217.474 307.412 214.917 307.412C212.36 307.412 209.595 307.412 206.623 307.412C206.623 310.453 206.623 313.218 206.623 315.706C206.623 318.194 206.623 320.959 206.623 324ZM206.623 324C209.595 324 212.36 324 214.917 324C217.474 324 220.239 324 223.211 324C223.211 320.959 223.211 318.194 223.211 315.706C223.211 313.218 223.211 310.453 223.211 307.412C220.239 307.412 217.474 307.412 214.917 307.412C212.36 307.412 209.595 307.412 206.623 307.412C206.623 310.453 206.623 313.218 206.623 315.706C206.623 318.194 206.623 320.959 206.623 324ZM206.623 324C209.595 324 212.36 324 214.917 324C217.474 324 220.239 324 223.211 324C223.211 320.959 223.211 318.194 223.211 315.706C223.211 313.218 223.211 310.453 223.211 307.412C220.239 307.412 217.474 307.412 214.917 307.412C212.36 307.412 209.595 307.412 206.623 307.412C206.623 310.453 206.623 313.218 206.623 315.706C206.623 318.194 206.623 320.959 206.623 324ZM239.799 324C242.771 324 245.536 324 248.093 324C250.651 324 253.415 324 256.388 324C256.388 320.959 256.388 318.194 256.388 315.706C256.388 313.218 256.388 310.453 256.388 307.412C253.415 307.412 250.651 307.412 248.093 307.412C245.536 307.412 242.771 307.412 239.799 307.412C239.799 310.453 239.799 313.218 239.799 315.706C239.799 318.194 239.799 320.959 239.799 324ZM239.799 324C242.771 324 245.536 324 248.093 324C250.651 324 253.415 324 256.388 324C256.388 320.959 256.388 318.194 256.388 315.706C256.388 313.218 256.388 310.453 256.388 307.412C253.415 307.412 250.651 307.412 248.093 307.412C245.536 307.412 242.771 307.412 239.799 307.412C239.799 310.453 239.799 313.218 239.799 315.706C239.799 318.194 239.799 320.959 239.799 324ZM239.799 324C242.771 324 245.536 324 248.093 324C250.651 324 253.415 324 256.388 324C256.388 320.959 256.388 318.194 256.388 315.706C256.388 313.218 256.388 310.453 256.388 307.412C253.415 307.412 250.651 307.412 248.093 307.412C245.536 307.412 242.771 307.412 239.799 307.412C239.799 310.453 239.799 313.218 239.799 315.706C239.799 318.194 239.799 320.959 239.799 324ZM239.799 324C242.771 324 245.536 324 248.093 324C250.651 324 253.415 324 256.388 324C256.388 320.959 256.388 318.194 256.388 315.706C256.388 313.218 256.388 310.453 256.388 307.412C253.415 307.412 250.651 307.412 248.093 307.412C245.536 307.412 242.771 307.412 239.799 307.412C239.799 310.453 239.799 313.218 239.799 315.706C239.799 318.194 239.799 320.959 239.799 324ZM239.799 324C242.771 324 245.536 324 248.093 324C250.651 324 253.415 324 256.388 324C256.388 320.959 256.388 318.194 256.388 315.706C256.388 313.218 256.388 310.453 256.388 307.412C253.415 307.412 250.651 307.412 248.093 307.412C245.536 307.412 242.771 307.412 239.799 307.412C239.799 310.453 239.799 313.218 239.799 315.706C239.799 318.194 239.799 320.959 239.799 324ZM239.799 324C242.771 324 245.536 324 248.093 324C250.651 324 253.415 324 256.388 324C256.388 320.959 256.388 318.194 256.388 315.706C256.388 313.218 256.388 310.453 256.388 307.412C253.415 307.412 250.651 307.412 248.093 307.412C245.536 307.412 242.771 307.412 239.799 307.412C239.799 310.453 239.799 313.218 239.799 315.706C239.799 318.194 239.799 320.959 239.799 324ZM239.799 324C242.771 324 245.536 324 248.093 324C250.651 324 253.415 324 256.388 324C256.388 320.959 256.388 318.194 256.388 315.706C256.388 313.218 256.388 310.453 256.388 307.412C253.415 307.412 250.651 307.412 248.093 307.412C245.536 307.412 242.771 307.412 239.799 307.412C239.799 310.453 239.799 313.218 239.799 315.706C239.799 318.194 239.799 320.959 239.799 324ZM239.799 324C242.771 324 245.536 324 248.093 324C250.651 324 253.415 324 256.388 324C256.388 320.959 256.388 318.194 256.388 315.706C256.388 313.218 256.388 310.453 256.388 307.412C253.415 307.412 250.651 307.412 248.093 307.412C245.536 307.412 242.771 307.412 239.799 307.412C239.799 310.453 239.799 313.218 239.799 315.706C239.799 318.194 239.799 320.959 239.799 324ZM239.799 324C242.771 324 245.536 324 248.093 324C250.651 324 253.415 324 256.388 324C256.388 320.959 256.388 318.194 256.388 315.706C256.388 313.218 256.388 310.453 256.388 307.412C253.415 307.412 250.651 307.412 248.093 307.412C245.536 307.412 242.771 307.412 239.799 307.412C239.799 310.453 239.799 313.218 239.799 315.706C239.799 318.194 239.799 320.959 239.799 324ZM256.388 324C259.36 324 262.124 324 264.682 324C267.239 324 270.004 324 272.976 324C272.976 320.959 272.976 318.194 272.976 315.706C272.976 313.218 272.976 310.453 272.976 307.412C270.004 307.412 267.239 307.412 264.682 307.412C262.124 307.412 259.36 307.412 256.388 307.412C256.388 310.453 256.388 313.218 256.388 315.706C256.388 318.194 256.388 320.959 256.388 324ZM256.388 324C259.36 324 262.124 324 264.682 324C267.239 324 270.004 324 272.976 324C272.976 320.959 272.976 318.194 272.976 315.706C272.976 313.218 272.976 310.453 272.976 307.412C270.004 307.412 267.239 307.412 264.682 307.412C262.124 307.412 259.36 307.412 256.388 307.412C256.388 310.453 256.388 313.218 256.388 315.706C256.388 318.194 256.388 320.959 256.388 324ZM256.388 324C259.36 324 262.124 324 264.682 324C267.239 324 270.004 324 272.976 324C272.976 320.959 272.976 318.194 272.976 315.706C272.976 313.218 272.976 310.453 272.976 307.412C270.004 307.412 267.239 307.412 264.682 307.412C262.124 307.412 259.36 307.412 256.388 307.412C256.388 310.453 256.388 313.218 256.388 315.706C256.388 318.194 256.388 320.959 256.388 324ZM256.388 324C259.36 324 262.124 324 264.682 324C267.239 324 270.004 324 272.976 324C272.976 320.959 272.976 318.194 272.976 315.706C272.976 313.218 272.976 310.453 272.976 307.412C270.004 307.412 267.239 307.412 264.682 307.412C262.124 307.412 259.36 307.412 256.388 307.412C256.388 310.453 256.388 313.218 256.388 315.706C256.388 318.194 256.388 320.959 256.388 324ZM256.388 324C259.36 324 262.124 324 264.682 324C267.239 324 270.004 324 272.976 324C272.976 320.959 272.976 318.194 272.976 315.706C272.976 313.218 272.976 310.453 272.976 307.412C270.004 307.412 267.239 307.412 264.682 307.412C262.124 307.412 259.36 307.412 256.388 307.412C256.388 310.453 256.388 313.218 256.388 315.706C256.388 318.194 256.388 320.959 256.388 324ZM256.388 324C259.36 324 262.124 324 264.682 324C267.239 324 270.004 324 272.976 324C272.976 320.959 272.976 318.194 272.976 315.706C272.976 313.218 272.976 310.453 272.976 307.412C270.004 307.412 267.239 307.412 264.682 307.412C262.124 307.412 259.36 307.412 256.388 307.412C256.388 310.453 256.388 313.218 256.388 315.706C256.388 318.194 256.388 320.959 256.388 324ZM256.388 324C259.36 324 262.124 324 264.682 324C267.239 324 270.004 324 272.976 324C272.976 320.959 272.976 318.194 272.976 315.706C272.976 313.218 272.976 310.453 272.976 307.412C270.004 307.412 267.239 307.412 264.682 307.412C262.124 307.412 259.36 307.412 256.388 307.412C256.388 310.453 256.388 313.218 256.388 315.706C256.388 318.194 256.388 320.959 256.388 324ZM256.388 324C259.36 324 262.124 324 264.682 324C267.239 324 270.004 324 272.976 324C272.976 320.959 272.976 318.194 272.976 315.706C272.976 313.218 272.976 310.453 272.976 307.412C270.004 307.412 267.239 307.412 264.682 307.412C262.124 307.412 259.36 307.412 256.388 307.412C256.388 310.453 256.388 313.218 256.388 315.706C256.388 318.194 256.388 320.959 256.388 324ZM256.388 324C259.36 324 262.124 324 264.682 324C267.239 324 270.004 324 272.976 324C272.976 320.959 272.976 318.194 272.976 315.706C272.976 313.218 272.976 310.453 272.976 307.412C270.004 307.412 267.239 307.412 264.682 307.412C262.124 307.412 259.36 307.412 256.388 307.412C256.388 310.453 256.388 313.218 256.388 315.706C256.388 318.194 256.388 320.959 256.388 324ZM206.623 307.412C209.595 307.412 212.36 307.412 214.917 307.412C217.474 307.412 220.239 307.412 223.211 307.412C223.211 304.371 223.211 301.606 223.211 299.118C223.211 296.629 223.211 293.865 223.211 290.824C220.239 290.824 217.474 290.824 214.917 290.824C212.36 290.824 209.595 290.824 206.623 290.824C206.623 293.865 206.623 296.629 206.623 299.118C206.623 301.606 206.623 304.371 206.623 307.412ZM206.623 307.412C209.595 307.412 212.36 307.412 214.917 307.412C217.474 307.412 220.239 307.412 223.211 307.412C223.211 304.371 223.211 301.606 223.211 299.118C223.211 296.629 223.211 293.865 223.211 290.824C220.239 290.824 217.474 290.824 214.917 290.824C212.36 290.824 209.595 290.824 206.623 290.824C206.623 293.865 206.623 296.629 206.623 299.118C206.623 301.606 206.623 304.371 206.623 307.412ZM206.623 307.412C209.595 307.412 212.36 307.412 214.917 307.412C217.474 307.412 220.239 307.412 223.211 307.412C223.211 304.371 223.211 301.606 223.211 299.118C223.211 296.629 223.211 293.865 223.211 290.824C220.239 290.824 217.474 290.824 214.917 290.824C212.36 290.824 209.595 290.824 206.623 290.824C206.623 293.865 206.623 296.629 206.623 299.118C206.623 301.606 206.623 304.371 206.623 307.412ZM206.623 307.412C209.595 307.412 212.36 307.412 214.917 307.412C217.474 307.412 220.239 307.412 223.211 307.412C223.211 304.371 223.211 301.606 223.211 299.118C223.211 296.629 223.211 293.865 223.211 290.824C220.239 290.824 217.474 290.824 214.917 290.824C212.36 290.824 209.595 290.824 206.623 290.824C206.623 293.865 206.623 296.629 206.623 299.118C206.623 301.606 206.623 304.371 206.623 307.412ZM206.623 307.412C209.595 307.412 212.36 307.412 214.917 307.412C217.474 307.412 220.239 307.412 223.211 307.412C223.211 304.371 223.211 301.606 223.211 299.118C223.211 296.629 223.211 293.865 223.211 290.824C220.239 290.824 217.474 290.824 214.917 290.824C212.36 290.824 209.595 290.824 206.623 290.824C206.623 293.865 206.623 296.629 206.623 299.118C206.623 301.606 206.623 304.371 206.623 307.412ZM206.623 307.412C209.595 307.412 212.36 307.412 214.917 307.412C217.474 307.412 220.239 307.412 223.211 307.412C223.211 304.371 223.211 301.606 223.211 299.118C223.211 296.629 223.211 293.865 223.211 290.824C220.239 290.824 217.474 290.824 214.917 290.824C212.36 290.824 209.595 290.824 206.623 290.824C206.623 293.865 206.623 296.629 206.623 299.118C206.623 301.606 206.623 304.371 206.623 307.412ZM206.623 307.412C209.595 307.412 212.36 307.412 214.917 307.412C217.474 307.412 220.239 307.412 223.211 307.412C223.211 304.371 223.211 301.606 223.211 299.118C223.211 296.629 223.211 293.865 223.211 290.824C220.239 290.824 217.474 290.824 214.917 290.824C212.36 290.824 209.595 290.824 206.623 290.824C206.623 293.865 206.623 296.629 206.623 299.118C206.623 301.606 206.623 304.371 206.623 307.412ZM206.623 307.412C209.595 307.412 212.36 307.412 214.917 307.412C217.474 307.412 220.239 307.412 223.211 307.412C223.211 304.371 223.211 301.606 223.211 299.118C223.211 296.629 223.211 293.865 223.211 290.824C220.239 290.824 217.474 290.824 214.917 290.824C212.36 290.824 209.595 290.824 206.623 290.824C206.623 293.865 206.623 296.629 206.623 299.118C206.623 301.606 206.623 304.371 206.623 307.412ZM206.623 307.412C209.595 307.412 212.36 307.412 214.917 307.412C217.474 307.412 220.239 307.412 223.211 307.412C223.211 304.371 223.211 301.606 223.211 299.118C223.211 296.629 223.211 293.865 223.211 290.824C220.239 290.824 217.474 290.824 214.917 290.824C212.36 290.824 209.595 290.824 206.623 290.824C206.623 293.865 206.623 296.629 206.623 299.118C206.623 301.606 206.623 304.371 206.623 307.412ZM223.211 307.412C226.183 307.412 228.948 307.412 231.505 307.412C234.063 307.412 236.827 307.412 239.799 307.412C239.799 304.371 239.799 301.606 239.799 299.118C239.799 296.629 239.799 293.865 239.799 290.824C236.827 290.824 234.063 290.824 231.505 290.824C228.948 290.824 226.183 290.824 223.211 290.824C223.211 293.865 223.211 296.629 223.211 299.118C223.211 301.606 223.211 304.371 223.211 307.412ZM223.211 307.412C226.183 307.412 228.948 307.412 231.505 307.412C234.063 307.412 236.827 307.412 239.799 307.412C239.799 304.371 239.799 301.606 239.799 299.118C239.799 296.629 239.799 293.865 239.799 290.824C236.827 290.824 234.063 290.824 231.505 290.824C228.948 290.824 226.183 290.824 223.211 290.824C223.211 293.865 223.211 296.629 223.211 299.118C223.211 301.606 223.211 304.371 223.211 307.412ZM223.211 307.412C226.183 307.412 228.948 307.412 231.505 307.412C234.063 307.412 236.827 307.412 239.799 307.412C239.799 304.371 239.799 301.606 239.799 299.118C239.799 296.629 239.799 293.865 239.799 290.824C236.827 290.824 234.063 290.824 231.505 290.824C228.948 290.824 226.183 290.824 223.211 290.824C223.211 293.865 223.211 296.629 223.211 299.118C223.211 301.606 223.211 304.371 223.211 307.412ZM223.211 307.412C226.183 307.412 228.948 307.412 231.505 307.412C234.063 307.412 236.827 307.412 239.799 307.412C239.799 304.371 239.799 301.606 239.799 299.118C239.799 296.629 239.799 293.865 239.799 290.824C236.827 290.824 234.063 290.824 231.505 290.824C228.948 290.824 226.183 290.824 223.211 290.824C223.211 293.865 223.211 296.629 223.211 299.118C223.211 301.606 223.211 304.371 223.211 307.412ZM223.211 307.412C226.183 307.412 228.948 307.412 231.505 307.412C234.063 307.412 236.827 307.412 239.799 307.412C239.799 304.371 239.799 301.606 239.799 299.118C239.799 296.629 239.799 293.865 239.799 290.824C236.827 290.824 234.063 290.824 231.505 290.824C228.948 290.824 226.183 290.824 223.211 290.824C223.211 293.865 223.211 296.629 223.211 299.118C223.211 301.606 223.211 304.371 223.211 307.412ZM223.211 307.412C226.183 307.412 228.948 307.412 231.505 307.412C234.063 307.412 236.827 307.412 239.799 307.412C239.799 304.371 239.799 301.606 239.799 299.118C239.799 296.629 239.799 293.865 239.799 290.824C236.827 290.824 234.063 290.824 231.505 290.824C228.948 290.824 226.183 290.824 223.211 290.824C223.211 293.865 223.211 296.629 223.211 299.118C223.211 301.606 223.211 304.371 223.211 307.412ZM223.211 307.412C226.183 307.412 228.948 307.412 231.505 307.412C234.063 307.412 236.827 307.412 239.799 307.412C239.799 304.371 239.799 301.606 239.799 299.118C239.799 296.629 239.799 293.865 239.799 290.824C236.827 290.824 234.063 290.824 231.505 290.824C228.948 290.824 226.183 290.824 223.211 290.824C223.211 293.865 223.211 296.629 223.211 299.118C223.211 301.606 223.211 304.371 223.211 307.412ZM223.211 307.412C226.183 307.412 228.948 307.412 231.505 307.412C234.063 307.412 236.827 307.412 239.799 307.412C239.799 304.371 239.799 301.606 239.799 299.118C239.799 296.629 239.799 293.865 239.799 290.824C236.827 290.824 234.063 290.824 231.505 290.824C228.948 290.824 226.183 290.824 223.211 290.824C223.211 293.865 223.211 296.629 223.211 299.118C223.211 301.606 223.211 304.371 223.211 307.412ZM223.211 307.412C226.183 307.412 228.948 307.412 231.505 307.412C234.063 307.412 236.827 307.412 239.799 307.412C239.799 304.371 239.799 301.606 239.799 299.118C239.799 296.629 239.799 293.865 239.799 290.824C236.827 290.824 234.063 290.824 231.505 290.824C228.948 290.824 226.183 290.824 223.211 290.824C223.211 293.865 223.211 296.629 223.211 299.118C223.211 301.606 223.211 304.371 223.211 307.412ZM272.976 307.412C275.948 307.412 278.713 307.412 281.27 307.412C283.827 307.412 286.592 307.412 289.564 307.412C289.564 304.371 289.564 301.606 289.564 299.118C289.564 296.629 289.564 293.865 289.564 290.824C286.592 290.824 283.827 290.824 281.27 290.824C278.713 290.824 275.948 290.824 272.976 290.824C272.976 293.865 272.976 296.629 272.976 299.118C272.976 301.606 272.976 304.371 272.976 307.412ZM272.976 307.412C275.948 307.412 278.713 307.412 281.27 307.412C283.827 307.412 286.592 307.412 289.564 307.412C289.564 304.371 289.564 301.606 289.564 299.118C289.564 296.629 289.564 293.865 289.564 290.824C286.592 290.824 283.827 290.824 281.27 290.824C278.713 290.824 275.948 290.824 272.976 290.824C272.976 293.865 272.976 296.629 272.976 299.118C272.976 301.606 272.976 304.371 272.976 307.412ZM272.976 307.412C275.948 307.412 278.713 307.412 281.27 307.412C283.827 307.412 286.592 307.412 289.564 307.412C289.564 304.371 289.564 301.606 289.564 299.118C289.564 296.629 289.564 293.865 289.564 290.824C286.592 290.824 283.827 290.824 281.27 290.824C278.713 290.824 275.948 290.824 272.976 290.824C272.976 293.865 272.976 296.629 272.976 299.118C272.976 301.606 272.976 304.371 272.976 307.412ZM272.976 307.412C275.948 307.412 278.713 307.412 281.27 307.412C283.827 307.412 286.592 307.412 289.564 307.412C289.564 304.371 289.564 301.606 289.564 299.118C289.564 296.629 289.564 293.865 289.564 290.824C286.592 290.824 283.827 290.824 281.27 290.824C278.713 290.824 275.948 290.824 272.976 290.824C272.976 293.865 272.976 296.629 272.976 299.118C272.976 301.606 272.976 304.371 272.976 307.412ZM272.976 307.412C275.948 307.412 278.713 307.412 281.27 307.412C283.827 307.412 286.592 307.412 289.564 307.412C289.564 304.371 289.564 301.606 289.564 299.118C289.564 296.629 289.564 293.865 289.564 290.824C286.592 290.824 283.827 290.824 281.27 290.824C278.713 290.824 275.948 290.824 272.976 290.824C272.976 293.865 272.976 296.629 272.976 299.118C272.976 301.606 272.976 304.371 272.976 307.412ZM272.976 307.412C275.948 307.412 278.713 307.412 281.27 307.412C283.827 307.412 286.592 307.412 289.564 307.412C289.564 304.371 289.564 301.606 289.564 299.118C289.564 296.629 289.564 293.865 289.564 290.824C286.592 290.824 283.827 290.824 281.27 290.824C278.713 290.824 275.948 290.824 272.976 290.824C272.976 293.865 272.976 296.629 272.976 299.118C272.976 301.606 272.976 304.371 272.976 307.412ZM272.976 307.412C275.948 307.412 278.713 307.412 281.27 307.412C283.827 307.412 286.592 307.412 289.564 307.412C289.564 304.371 289.564 301.606 289.564 299.118C289.564 296.629 289.564 293.865 289.564 290.824C286.592 290.824 283.827 290.824 281.27 290.824C278.713 290.824 275.948 290.824 272.976 290.824C272.976 293.865 272.976 296.629 272.976 299.118C272.976 301.606 272.976 304.371 272.976 307.412ZM272.976 307.412C275.948 307.412 278.713 307.412 281.27 307.412C283.827 307.412 286.592 307.412 289.564 307.412C289.564 304.371 289.564 301.606 289.564 299.118C289.564 296.629 289.564 293.865 289.564 290.824C286.592 290.824 283.827 290.824 281.27 290.824C278.713 290.824 275.948 290.824 272.976 290.824C272.976 293.865 272.976 296.629 272.976 299.118C272.976 301.606 272.976 304.371 272.976 307.412ZM272.976 307.412C275.948 307.412 278.713 307.412 281.27 307.412C283.827 307.412 286.592 307.412 289.564 307.412C289.564 304.371 289.564 301.606 289.564 299.118C289.564 296.629 289.564 293.865 289.564 290.824C286.592 290.824 283.827 290.824 281.27 290.824C278.713 290.824 275.948 290.824 272.976 290.824C272.976 293.865 272.976 296.629 272.976 299.118C272.976 301.606 272.976 304.371 272.976 307.412ZM206.623 290.824C209.595 290.824 212.36 290.824 214.917 290.824C217.474 290.824 220.239 290.824 223.211 290.824C223.211 287.782 223.211 285.018 223.211 282.529C223.211 280.041 223.211 277.276 223.211 274.235C220.239 274.235 217.474 274.235 214.917 274.235C212.36 274.235 209.595 274.235 206.623 274.235C206.623 277.276 206.623 280.041 206.623 282.529C206.623 285.018 206.623 287.782 206.623 290.824ZM206.623 290.824C209.595 290.824 212.36 290.824 214.917 290.824C217.474 290.824 220.239 290.824 223.211 290.824C223.211 287.782 223.211 285.018 223.211 282.529C223.211 280.041 223.211 277.276 223.211 274.235C220.239 274.235 217.474 274.235 214.917 274.235C212.36 274.235 209.595 274.235 206.623 274.235C206.623 277.276 206.623 280.041 206.623 282.529C206.623 285.018 206.623 287.782 206.623 290.824ZM206.623 290.824C209.595 290.824 212.36 290.824 214.917 290.824C217.474 290.824 220.239 290.824 223.211 290.824C223.211 287.782 223.211 285.018 223.211 282.529C223.211 280.041 223.211 277.276 223.211 274.235C220.239 274.235 217.474 274.235 214.917 274.235C212.36 274.235 209.595 274.235 206.623 274.235C206.623 277.276 206.623 280.041 206.623 282.529C206.623 285.018 206.623 287.782 206.623 290.824ZM206.623 290.824C209.595 290.824 212.36 290.824 214.917 290.824C217.474 290.824 220.239 290.824 223.211 290.824C223.211 287.782 223.211 285.018 223.211 282.529C223.211 280.041 223.211 277.276 223.211 274.235C220.239 274.235 217.474 274.235 214.917 274.235C212.36 274.235 209.595 274.235 206.623 274.235C206.623 277.276 206.623 280.041 206.623 282.529C206.623 285.018 206.623 287.782 206.623 290.824ZM206.623 290.824C209.595 290.824 212.36 290.824 214.917 290.824C217.474 290.824 220.239 290.824 223.211 290.824C223.211 287.782 223.211 285.018 223.211 282.529C223.211 280.041 223.211 277.276 223.211 274.235C220.239 274.235 217.474 274.235 214.917 274.235C212.36 274.235 209.595 274.235 206.623 274.235C206.623 277.276 206.623 280.041 206.623 282.529C206.623 285.018 206.623 287.782 206.623 290.824ZM206.623 290.824C209.595 290.824 212.36 290.824 214.917 290.824C217.474 290.824 220.239 290.824 223.211 290.824C223.211 287.782 223.211 285.018 223.211 282.529C223.211 280.041 223.211 277.276 223.211 274.235C220.239 274.235 217.474 274.235 214.917 274.235C212.36 274.235 209.595 274.235 206.623 274.235C206.623 277.276 206.623 280.041 206.623 282.529C206.623 285.018 206.623 287.782 206.623 290.824ZM206.623 290.824C209.595 290.824 212.36 290.824 214.917 290.824C217.474 290.824 220.239 290.824 223.211 290.824C223.211 287.782 223.211 285.018 223.211 282.529C223.211 280.041 223.211 277.276 223.211 274.235C220.239 274.235 217.474 274.235 214.917 274.235C212.36 274.235 209.595 274.235 206.623 274.235C206.623 277.276 206.623 280.041 206.623 282.529C206.623 285.018 206.623 287.782 206.623 290.824ZM206.623 290.824C209.595 290.824 212.36 290.824 214.917 290.824C217.474 290.824 220.239 290.824 223.211 290.824C223.211 287.782 223.211 285.018 223.211 282.529C223.211 280.041 223.211 277.276 223.211 274.235C220.239 274.235 217.474 274.235 214.917 274.235C212.36 274.235 209.595 274.235 206.623 274.235C206.623 277.276 206.623 280.041 206.623 282.529C206.623 285.018 206.623 287.782 206.623 290.824ZM206.623 290.824C209.595 290.824 212.36 290.824 214.917 290.824C217.474 290.824 220.239 290.824 223.211 290.824C223.211 287.782 223.211 285.018 223.211 282.529C223.211 280.041 223.211 277.276 223.211 274.235C220.239 274.235 217.474 274.235 214.917 274.235C212.36 274.235 209.595 274.235 206.623 274.235C206.623 277.276 206.623 280.041 206.623 282.529C206.623 285.018 206.623 287.782 206.623 290.824ZM272.976 290.824C275.948 290.824 278.713 290.824 281.27 290.824C283.827 290.824 286.592 290.824 289.564 290.824C289.564 287.782 289.564 285.018 289.564 282.529C289.564 280.041 289.564 277.276 289.564 274.235C286.592 274.235 283.827 274.235 281.27 274.235C278.713 274.235 275.948 274.235 272.976 274.235C272.976 277.276 272.976 280.041 272.976 282.529C272.976 285.018 272.976 287.782 272.976 290.824ZM272.976 290.824C275.948 290.824 278.713 290.824 281.27 290.824C283.827 290.824 286.592 290.824 289.564 290.824C289.564 287.782 289.564 285.018 289.564 282.529C289.564 280.041 289.564 277.276 289.564 274.235C286.592 274.235 283.827 274.235 281.27 274.235C278.713 274.235 275.948 274.235 272.976 274.235C272.976 277.276 272.976 280.041 272.976 282.529C272.976 285.018 272.976 287.782 272.976 290.824ZM272.976 290.824C275.948 290.824 278.713 290.824 281.27 290.824C283.827 290.824 286.592 290.824 289.564 290.824C289.564 287.782 289.564 285.018 289.564 282.529C289.564 280.041 289.564 277.276 289.564 274.235C286.592 274.235 283.827 274.235 281.27 274.235C278.713 274.235 275.948 274.235 272.976 274.235C272.976 277.276 272.976 280.041 272.976 282.529C272.976 285.018 272.976 287.782 272.976 290.824ZM272.976 290.824C275.948 290.824 278.713 290.824 281.27 290.824C283.827 290.824 286.592 290.824 289.564 290.824C289.564 287.782 289.564 285.018 289.564 282.529C289.564 280.041 289.564 277.276 289.564 274.235C286.592 274.235 283.827 274.235 281.27 274.235C278.713 274.235 275.948 274.235 272.976 274.235C272.976 277.276 272.976 280.041 272.976 282.529C272.976 285.018 272.976 287.782 272.976 290.824ZM272.976 290.824C275.948 290.824 278.713 290.824 281.27 290.824C283.827 290.824 286.592 290.824 289.564 290.824C289.564 287.782 289.564 285.018 289.564 282.529C289.564 280.041 289.564 277.276 289.564 274.235C286.592 274.235 283.827 274.235 281.27 274.235C278.713 274.235 275.948 274.235 272.976 274.235C272.976 277.276 272.976 280.041 272.976 282.529C272.976 285.018 272.976 287.782 272.976 290.824ZM272.976 290.824C275.948 290.824 278.713 290.824 281.27 290.824C283.827 290.824 286.592 290.824 289.564 290.824C289.564 287.782 289.564 285.018 289.564 282.529C289.564 280.041 289.564 277.276 289.564 274.235C286.592 274.235 283.827 274.235 281.27 274.235C278.713 274.235 275.948 274.235 272.976 274.235C272.976 277.276 272.976 280.041 272.976 282.529C272.976 285.018 272.976 287.782 272.976 290.824ZM272.976 290.824C275.948 290.824 278.713 290.824 281.27 290.824C283.827 290.824 286.592 290.824 289.564 290.824C289.564 287.782 289.564 285.018 289.564 282.529C289.564 280.041 289.564 277.276 289.564 274.235C286.592 274.235 283.827 274.235 281.27 274.235C278.713 274.235 275.948 274.235 272.976 274.235C272.976 277.276 272.976 280.041 272.976 282.529C272.976 285.018 272.976 287.782 272.976 290.824ZM272.976 290.824C275.948 290.824 278.713 290.824 281.27 290.824C283.827 290.824 286.592 290.824 289.564 290.824C289.564 287.782 289.564 285.018 289.564 282.529C289.564 280.041 289.564 277.276 289.564 274.235C286.592 274.235 283.827 274.235 281.27 274.235C278.713 274.235 275.948 274.235 272.976 274.235C272.976 277.276 272.976 280.041 272.976 282.529C272.976 285.018 272.976 287.782 272.976 290.824ZM272.976 290.824C275.948 290.824 278.713 290.824 281.27 290.824C283.827 290.824 286.592 290.824 289.564 290.824C289.564 287.782 289.564 285.018 289.564 282.529C289.564 280.041 289.564 277.276 289.564 274.235C286.592 274.235 283.827 274.235 281.27 274.235C278.713 274.235 275.948 274.235 272.976 274.235C272.976 277.276 272.976 280.041 272.976 282.529C272.976 285.018 272.976 287.782 272.976 290.824ZM206.623 274.235C209.595 274.235 212.36 274.235 214.917 274.235C217.474 274.235 220.239 274.235 223.211 274.235C223.211 271.194 223.211 268.429 223.211 265.941C223.211 263.453 223.211 260.688 223.211 257.647C220.239 257.647 217.474 257.647 214.917 257.647C212.36 257.647 209.595 257.647 206.623 257.647C206.623 260.688 206.623 263.453 206.623 265.941C206.623 268.429 206.623 271.194 206.623 274.235ZM206.623 274.235C209.595 274.235 212.36 274.235 214.917 274.235C217.474 274.235 220.239 274.235 223.211 274.235C223.211 271.194 223.211 268.429 223.211 265.941C223.211 263.453 223.211 260.688 223.211 257.647C220.239 257.647 217.474 257.647 214.917 257.647C212.36 257.647 209.595 257.647 206.623 257.647C206.623 260.688 206.623 263.453 206.623 265.941C206.623 268.429 206.623 271.194 206.623 274.235ZM206.623 274.235C209.595 274.235 212.36 274.235 214.917 274.235C217.474 274.235 220.239 274.235 223.211 274.235C223.211 271.194 223.211 268.429 223.211 265.941C223.211 263.453 223.211 260.688 223.211 257.647C220.239 257.647 217.474 257.647 214.917 257.647C212.36 257.647 209.595 257.647 206.623 257.647C206.623 260.688 206.623 263.453 206.623 265.941C206.623 268.429 206.623 271.194 206.623 274.235ZM206.623 274.235C209.595 274.235 212.36 274.235 214.917 274.235C217.474 274.235 220.239 274.235 223.211 274.235C223.211 271.194 223.211 268.429 223.211 265.941C223.211 263.453 223.211 260.688 223.211 257.647C220.239 257.647 217.474 257.647 214.917 257.647C212.36 257.647 209.595 257.647 206.623 257.647C206.623 260.688 206.623 263.453 206.623 265.941C206.623 268.429 206.623 271.194 206.623 274.235ZM206.623 274.235C209.595 274.235 212.36 274.235 214.917 274.235C217.474 274.235 220.239 274.235 223.211 274.235C223.211 271.194 223.211 268.429 223.211 265.941C223.211 263.453 223.211 260.688 223.211 257.647C220.239 257.647 217.474 257.647 214.917 257.647C212.36 257.647 209.595 257.647 206.623 257.647C206.623 260.688 206.623 263.453 206.623 265.941C206.623 268.429 206.623 271.194 206.623 274.235ZM206.623 274.235C209.595 274.235 212.36 274.235 214.917 274.235C217.474 274.235 220.239 274.235 223.211 274.235C223.211 271.194 223.211 268.429 223.211 265.941C223.211 263.453 223.211 260.688 223.211 257.647C220.239 257.647 217.474 257.647 214.917 257.647C212.36 257.647 209.595 257.647 206.623 257.647C206.623 260.688 206.623 263.453 206.623 265.941C206.623 268.429 206.623 271.194 206.623 274.235ZM206.623 274.235C209.595 274.235 212.36 274.235 214.917 274.235C217.474 274.235 220.239 274.235 223.211 274.235C223.211 271.194 223.211 268.429 223.211 265.941C223.211 263.453 223.211 260.688 223.211 257.647C220.239 257.647 217.474 257.647 214.917 257.647C212.36 257.647 209.595 257.647 206.623 257.647C206.623 260.688 206.623 263.453 206.623 265.941C206.623 268.429 206.623 271.194 206.623 274.235ZM206.623 274.235C209.595 274.235 212.36 274.235 214.917 274.235C217.474 274.235 220.239 274.235 223.211 274.235C223.211 271.194 223.211 268.429 223.211 265.941C223.211 263.453 223.211 260.688 223.211 257.647C220.239 257.647 217.474 257.647 214.917 257.647C212.36 257.647 209.595 257.647 206.623 257.647C206.623 260.688 206.623 263.453 206.623 265.941C206.623 268.429 206.623 271.194 206.623 274.235ZM206.623 274.235C209.595 274.235 212.36 274.235 214.917 274.235C217.474 274.235 220.239 274.235 223.211 274.235C223.211 271.194 223.211 268.429 223.211 265.941C223.211 263.453 223.211 260.688 223.211 257.647C220.239 257.647 217.474 257.647 214.917 257.647C212.36 257.647 209.595 257.647 206.623 257.647C206.623 260.688 206.623 263.453 206.623 265.941C206.623 268.429 206.623 271.194 206.623 274.235ZM272.976 274.235C275.948 274.235 278.713 274.235 281.27 274.235C283.827 274.235 286.592 274.235 289.564 274.235C289.564 271.194 289.564 268.429 289.564 265.941C289.564 263.453 289.564 260.688 289.564 257.647C286.592 257.647 283.827 257.647 281.27 257.647C278.713 257.647 275.948 257.647 272.976 257.647C272.976 260.688 272.976 263.453 272.976 265.941C272.976 268.429 272.976 271.194 272.976 274.235ZM272.976 274.235C275.948 274.235 278.713 274.235 281.27 274.235C283.827 274.235 286.592 274.235 289.564 274.235C289.564 271.194 289.564 268.429 289.564 265.941C289.564 263.453 289.564 260.688 289.564 257.647C286.592 257.647 283.827 257.647 281.27 257.647C278.713 257.647 275.948 257.647 272.976 257.647C272.976 260.688 272.976 263.453 272.976 265.941C272.976 268.429 272.976 271.194 272.976 274.235ZM272.976 274.235C275.948 274.235 278.713 274.235 281.27 274.235C283.827 274.235 286.592 274.235 289.564 274.235C289.564 271.194 289.564 268.429 289.564 265.941C289.564 263.453 289.564 260.688 289.564 257.647C286.592 257.647 283.827 257.647 281.27 257.647C278.713 257.647 275.948 257.647 272.976 257.647C272.976 260.688 272.976 263.453 272.976 265.941C272.976 268.429 272.976 271.194 272.976 274.235ZM272.976 274.235C275.948 274.235 278.713 274.235 281.27 274.235C283.827 274.235 286.592 274.235 289.564 274.235C289.564 271.194 289.564 268.429 289.564 265.941C289.564 263.453 289.564 260.688 289.564 257.647C286.592 257.647 283.827 257.647 281.27 257.647C278.713 257.647 275.948 257.647 272.976 257.647C272.976 260.688 272.976 263.453 272.976 265.941C272.976 268.429 272.976 271.194 272.976 274.235ZM272.976 274.235C275.948 274.235 278.713 274.235 281.27 274.235C283.827 274.235 286.592 274.235 289.564 274.235C289.564 271.194 289.564 268.429 289.564 265.941C289.564 263.453 289.564 260.688 289.564 257.647C286.592 257.647 283.827 257.647 281.27 257.647C278.713 257.647 275.948 257.647 272.976 257.647C272.976 260.688 272.976 263.453 272.976 265.941C272.976 268.429 272.976 271.194 272.976 274.235ZM272.976 274.235C275.948 274.235 278.713 274.235 281.27 274.235C283.827 274.235 286.592 274.235 289.564 274.235C289.564 271.194 289.564 268.429 289.564 265.941C289.564 263.453 289.564 260.688 289.564 257.647C286.592 257.647 283.827 257.647 281.27 257.647C278.713 257.647 275.948 257.647 272.976 257.647C272.976 260.688 272.976 263.453 272.976 265.941C272.976 268.429 272.976 271.194 272.976 274.235ZM272.976 274.235C275.948 274.235 278.713 274.235 281.27 274.235C283.827 274.235 286.592 274.235 289.564 274.235C289.564 271.194 289.564 268.429 289.564 265.941C289.564 263.453 289.564 260.688 289.564 257.647C286.592 257.647 283.827 257.647 281.27 257.647C278.713 257.647 275.948 257.647 272.976 257.647C272.976 260.688 272.976 263.453 272.976 265.941C272.976 268.429 272.976 271.194 272.976 274.235ZM272.976 274.235C275.948 274.235 278.713 274.235 281.27 274.235C283.827 274.235 286.592 274.235 289.564 274.235C289.564 271.194 289.564 268.429 289.564 265.941C289.564 263.453 289.564 260.688 289.564 257.647C286.592 257.647 283.827 257.647 281.27 257.647C278.713 257.647 275.948 257.647 272.976 257.647C272.976 260.688 272.976 263.453 272.976 265.941C272.976 268.429 272.976 271.194 272.976 274.235ZM272.976 274.235C275.948 274.235 278.713 274.235 281.27 274.235C283.827 274.235 286.592 274.235 289.564 274.235C289.564 271.194 289.564 268.429 289.564 265.941C289.564 263.453 289.564 260.688 289.564 257.647C286.592 257.647 283.827 257.647 281.27 257.647C278.713 257.647 275.948 257.647 272.976 257.647C272.976 260.688 272.976 263.453 272.976 265.941C272.976 268.429 272.976 271.194 272.976 274.235ZM206.623 257.647C209.595 257.647 212.36 257.647 214.917 257.647C217.474 257.647 220.239 257.647 223.211 257.647C223.211 254.606 223.211 251.841 223.211 249.353C223.211 246.865 223.211 244.1 223.211 241.059C220.239 241.059 217.474 241.059 214.917 241.059C212.36 241.059 209.595 241.059 206.623 241.059C206.623 244.1 206.623 246.865 206.623 249.353C206.623 251.841 206.623 254.606 206.623 257.647ZM206.623 257.647C209.595 257.647 212.36 257.647 214.917 257.647C217.474 257.647 220.239 257.647 223.211 257.647C223.211 254.606 223.211 251.841 223.211 249.353C223.211 246.865 223.211 244.1 223.211 241.059C220.239 241.059 217.474 241.059 214.917 241.059C212.36 241.059 209.595 241.059 206.623 241.059C206.623 244.1 206.623 246.865 206.623 249.353C206.623 251.841 206.623 254.606 206.623 257.647ZM206.623 257.647C209.595 257.647 212.36 257.647 214.917 257.647C217.474 257.647 220.239 257.647 223.211 257.647C223.211 254.606 223.211 251.841 223.211 249.353C223.211 246.865 223.211 244.1 223.211 241.059C220.239 241.059 217.474 241.059 214.917 241.059C212.36 241.059 209.595 241.059 206.623 241.059C206.623 244.1 206.623 246.865 206.623 249.353C206.623 251.841 206.623 254.606 206.623 257.647ZM206.623 257.647C209.595 257.647 212.36 257.647 214.917 257.647C217.474 257.647 220.239 257.647 223.211 257.647C223.211 254.606 223.211 251.841 223.211 249.353C223.211 246.865 223.211 244.1 223.211 241.059C220.239 241.059 217.474 241.059 214.917 241.059C212.36 241.059 209.595 241.059 206.623 241.059C206.623 244.1 206.623 246.865 206.623 249.353C206.623 251.841 206.623 254.606 206.623 257.647ZM206.623 257.647C209.595 257.647 212.36 257.647 214.917 257.647C217.474 257.647 220.239 257.647 223.211 257.647C223.211 254.606 223.211 251.841 223.211 249.353C223.211 246.865 223.211 244.1 223.211 241.059C220.239 241.059 217.474 241.059 214.917 241.059C212.36 241.059 209.595 241.059 206.623 241.059C206.623 244.1 206.623 246.865 206.623 249.353C206.623 251.841 206.623 254.606 206.623 257.647ZM206.623 257.647C209.595 257.647 212.36 257.647 214.917 257.647C217.474 257.647 220.239 257.647 223.211 257.647C223.211 254.606 223.211 251.841 223.211 249.353C223.211 246.865 223.211 244.1 223.211 241.059C220.239 241.059 217.474 241.059 214.917 241.059C212.36 241.059 209.595 241.059 206.623 241.059C206.623 244.1 206.623 246.865 206.623 249.353C206.623 251.841 206.623 254.606 206.623 257.647ZM206.623 257.647C209.595 257.647 212.36 257.647 214.917 257.647C217.474 257.647 220.239 257.647 223.211 257.647C223.211 254.606 223.211 251.841 223.211 249.353C223.211 246.865 223.211 244.1 223.211 241.059C220.239 241.059 217.474 241.059 214.917 241.059C212.36 241.059 209.595 241.059 206.623 241.059C206.623 244.1 206.623 246.865 206.623 249.353C206.623 251.841 206.623 254.606 206.623 257.647ZM206.623 257.647C209.595 257.647 212.36 257.647 214.917 257.647C217.474 257.647 220.239 257.647 223.211 257.647C223.211 254.606 223.211 251.841 223.211 249.353C223.211 246.865 223.211 244.1 223.211 241.059C220.239 241.059 217.474 241.059 214.917 241.059C212.36 241.059 209.595 241.059 206.623 241.059C206.623 244.1 206.623 246.865 206.623 249.353C206.623 251.841 206.623 254.606 206.623 257.647ZM206.623 257.647C209.595 257.647 212.36 257.647 214.917 257.647C217.474 257.647 220.239 257.647 223.211 257.647C223.211 254.606 223.211 251.841 223.211 249.353C223.211 246.865 223.211 244.1 223.211 241.059C220.239 241.059 217.474 241.059 214.917 241.059C212.36 241.059 209.595 241.059 206.623 241.059C206.623 244.1 206.623 246.865 206.623 249.353C206.623 251.841 206.623 254.606 206.623 257.647ZM272.976 257.647C275.948 257.647 278.713 257.647 281.27 257.647C283.827 257.647 286.592 257.647 289.564 257.647C289.564 254.606 289.564 251.841 289.564 249.353C289.564 246.865 289.564 244.1 289.564 241.059C286.592 241.059 283.827 241.059 281.27 241.059C278.713 241.059 275.948 241.059 272.976 241.059C272.976 244.1 272.976 246.865 272.976 249.353C272.976 251.841 272.976 254.606 272.976 257.647ZM272.976 257.647C275.948 257.647 278.713 257.647 281.27 257.647C283.827 257.647 286.592 257.647 289.564 257.647C289.564 254.606 289.564 251.841 289.564 249.353C289.564 246.865 289.564 244.1 289.564 241.059C286.592 241.059 283.827 241.059 281.27 241.059C278.713 241.059 275.948 241.059 272.976 241.059C272.976 244.1 272.976 246.865 272.976 249.353C272.976 251.841 272.976 254.606 272.976 257.647ZM272.976 257.647C275.948 257.647 278.713 257.647 281.27 257.647C283.827 257.647 286.592 257.647 289.564 257.647C289.564 254.606 289.564 251.841 289.564 249.353C289.564 246.865 289.564 244.1 289.564 241.059C286.592 241.059 283.827 241.059 281.27 241.059C278.713 241.059 275.948 241.059 272.976 241.059C272.976 244.1 272.976 246.865 272.976 249.353C272.976 251.841 272.976 254.606 272.976 257.647ZM272.976 257.647C275.948 257.647 278.713 257.647 281.27 257.647C283.827 257.647 286.592 257.647 289.564 257.647C289.564 254.606 289.564 251.841 289.564 249.353C289.564 246.865 289.564 244.1 289.564 241.059C286.592 241.059 283.827 241.059 281.27 241.059C278.713 241.059 275.948 241.059 272.976 241.059C272.976 244.1 272.976 246.865 272.976 249.353C272.976 251.841 272.976 254.606 272.976 257.647ZM272.976 257.647C275.948 257.647 278.713 257.647 281.27 257.647C283.827 257.647 286.592 257.647 289.564 257.647C289.564 254.606 289.564 251.841 289.564 249.353C289.564 246.865 289.564 244.1 289.564 241.059C286.592 241.059 283.827 241.059 281.27 241.059C278.713 241.059 275.948 241.059 272.976 241.059C272.976 244.1 272.976 246.865 272.976 249.353C272.976 251.841 272.976 254.606 272.976 257.647ZM272.976 257.647C275.948 257.647 278.713 257.647 281.27 257.647C283.827 257.647 286.592 257.647 289.564 257.647C289.564 254.606 289.564 251.841 289.564 249.353C289.564 246.865 289.564 244.1 289.564 241.059C286.592 241.059 283.827 241.059 281.27 241.059C278.713 241.059 275.948 241.059 272.976 241.059C272.976 244.1 272.976 246.865 272.976 249.353C272.976 251.841 272.976 254.606 272.976 257.647ZM272.976 257.647C275.948 257.647 278.713 257.647 281.27 257.647C283.827 257.647 286.592 257.647 289.564 257.647C289.564 254.606 289.564 251.841 289.564 249.353C289.564 246.865 289.564 244.1 289.564 241.059C286.592 241.059 283.827 241.059 281.27 241.059C278.713 241.059 275.948 241.059 272.976 241.059C272.976 244.1 272.976 246.865 272.976 249.353C272.976 251.841 272.976 254.606 272.976 257.647ZM272.976 257.647C275.948 257.647 278.713 257.647 281.27 257.647C283.827 257.647 286.592 257.647 289.564 257.647C289.564 254.606 289.564 251.841 289.564 249.353C289.564 246.865 289.564 244.1 289.564 241.059C286.592 241.059 283.827 241.059 281.27 241.059C278.713 241.059 275.948 241.059 272.976 241.059C272.976 244.1 272.976 246.865 272.976 249.353C272.976 251.841 272.976 254.606 272.976 257.647ZM272.976 257.647C275.948 257.647 278.713 257.647 281.27 257.647C283.827 257.647 286.592 257.647 289.564 257.647C289.564 254.606 289.564 251.841 289.564 249.353C289.564 246.865 289.564 244.1 289.564 241.059C286.592 241.059 283.827 241.059 281.27 241.059C278.713 241.059 275.948 241.059 272.976 241.059C272.976 244.1 272.976 246.865 272.976 249.353C272.976 251.841 272.976 254.606 272.976 257.647ZM206.623 241.059C209.595 241.059 212.36 241.059 214.917 241.059C217.474 241.059 220.239 241.059 223.211 241.059C223.211 238.018 223.211 235.253 223.211 232.765C223.211 230.276 223.211 227.512 223.211 224.471C220.239 224.471 217.474 224.471 214.917 224.471C212.36 224.471 209.595 224.471 206.623 224.471C206.623 227.512 206.623 230.276 206.623 232.765C206.623 235.253 206.623 238.018 206.623 241.059ZM206.623 241.059C209.595 241.059 212.36 241.059 214.917 241.059C217.474 241.059 220.239 241.059 223.211 241.059C223.211 238.018 223.211 235.253 223.211 232.765C223.211 230.276 223.211 227.512 223.211 224.471C220.239 224.471 217.474 224.471 214.917 224.471C212.36 224.471 209.595 224.471 206.623 224.471C206.623 227.512 206.623 230.276 206.623 232.765C206.623 235.253 206.623 238.018 206.623 241.059ZM206.623 241.059C209.595 241.059 212.36 241.059 214.917 241.059C217.474 241.059 220.239 241.059 223.211 241.059C223.211 238.018 223.211 235.253 223.211 232.765C223.211 230.276 223.211 227.512 223.211 224.471C220.239 224.471 217.474 224.471 214.917 224.471C212.36 224.471 209.595 224.471 206.623 224.471C206.623 227.512 206.623 230.276 206.623 232.765C206.623 235.253 206.623 238.018 206.623 241.059ZM206.623 241.059C209.595 241.059 212.36 241.059 214.917 241.059C217.474 241.059 220.239 241.059 223.211 241.059C223.211 238.018 223.211 235.253 223.211 232.765C223.211 230.276 223.211 227.512 223.211 224.471C220.239 224.471 217.474 224.471 214.917 224.471C212.36 224.471 209.595 224.471 206.623 224.471C206.623 227.512 206.623 230.276 206.623 232.765C206.623 235.253 206.623 238.018 206.623 241.059ZM206.623 241.059C209.595 241.059 212.36 241.059 214.917 241.059C217.474 241.059 220.239 241.059 223.211 241.059C223.211 238.018 223.211 235.253 223.211 232.765C223.211 230.276 223.211 227.512 223.211 224.471C220.239 224.471 217.474 224.471 214.917 224.471C212.36 224.471 209.595 224.471 206.623 224.471C206.623 227.512 206.623 230.276 206.623 232.765C206.623 235.253 206.623 238.018 206.623 241.059ZM206.623 241.059C209.595 241.059 212.36 241.059 214.917 241.059C217.474 241.059 220.239 241.059 223.211 241.059C223.211 238.018 223.211 235.253 223.211 232.765C223.211 230.276 223.211 227.512 223.211 224.471C220.239 224.471 217.474 224.471 214.917 224.471C212.36 224.471 209.595 224.471 206.623 224.471C206.623 227.512 206.623 230.276 206.623 232.765C206.623 235.253 206.623 238.018 206.623 241.059ZM206.623 241.059C209.595 241.059 212.36 241.059 214.917 241.059C217.474 241.059 220.239 241.059 223.211 241.059C223.211 238.018 223.211 235.253 223.211 232.765C223.211 230.276 223.211 227.512 223.211 224.471C220.239 224.471 217.474 224.471 214.917 224.471C212.36 224.471 209.595 224.471 206.623 224.471C206.623 227.512 206.623 230.276 206.623 232.765C206.623 235.253 206.623 238.018 206.623 241.059ZM206.623 241.059C209.595 241.059 212.36 241.059 214.917 241.059C217.474 241.059 220.239 241.059 223.211 241.059C223.211 238.018 223.211 235.253 223.211 232.765C223.211 230.276 223.211 227.512 223.211 224.471C220.239 224.471 217.474 224.471 214.917 224.471C212.36 224.471 209.595 224.471 206.623 224.471C206.623 227.512 206.623 230.276 206.623 232.765C206.623 235.253 206.623 238.018 206.623 241.059ZM206.623 241.059C209.595 241.059 212.36 241.059 214.917 241.059C217.474 241.059 220.239 241.059 223.211 241.059C223.211 238.018 223.211 235.253 223.211 232.765C223.211 230.276 223.211 227.512 223.211 224.471C220.239 224.471 217.474 224.471 214.917 224.471C212.36 224.471 209.595 224.471 206.623 224.471C206.623 227.512 206.623 230.276 206.623 232.765C206.623 235.253 206.623 238.018 206.623 241.059ZM272.976 241.059C275.948 241.059 278.713 241.059 281.27 241.059C283.827 241.059 286.592 241.059 289.564 241.059C289.564 238.018 289.564 235.253 289.564 232.765C289.564 230.276 289.564 227.512 289.564 224.471C286.592 224.471 283.827 224.471 281.27 224.471C278.713 224.471 275.948 224.471 272.976 224.471C272.976 227.512 272.976 230.276 272.976 232.765C272.976 235.253 272.976 238.018 272.976 241.059ZM272.976 241.059C275.948 241.059 278.713 241.059 281.27 241.059C283.827 241.059 286.592 241.059 289.564 241.059C289.564 238.018 289.564 235.253 289.564 232.765C289.564 230.276 289.564 227.512 289.564 224.471C286.592 224.471 283.827 224.471 281.27 224.471C278.713 224.471 275.948 224.471 272.976 224.471C272.976 227.512 272.976 230.276 272.976 232.765C272.976 235.253 272.976 238.018 272.976 241.059ZM272.976 241.059C275.948 241.059 278.713 241.059 281.27 241.059C283.827 241.059 286.592 241.059 289.564 241.059C289.564 238.018 289.564 235.253 289.564 232.765C289.564 230.276 289.564 227.512 289.564 224.471C286.592 224.471 283.827 224.471 281.27 224.471C278.713 224.471 275.948 224.471 272.976 224.471C272.976 227.512 272.976 230.276 272.976 232.765C272.976 235.253 272.976 238.018 272.976 241.059ZM272.976 241.059C275.948 241.059 278.713 241.059 281.27 241.059C283.827 241.059 286.592 241.059 289.564 241.059C289.564 238.018 289.564 235.253 289.564 232.765C289.564 230.276 289.564 227.512 289.564 224.471C286.592 224.471 283.827 224.471 281.27 224.471C278.713 224.471 275.948 224.471 272.976 224.471C272.976 227.512 272.976 230.276 272.976 232.765C272.976 235.253 272.976 238.018 272.976 241.059ZM272.976 241.059C275.948 241.059 278.713 241.059 281.27 241.059C283.827 241.059 286.592 241.059 289.564 241.059C289.564 238.018 289.564 235.253 289.564 232.765C289.564 230.276 289.564 227.512 289.564 224.471C286.592 224.471 283.827 224.471 281.27 224.471C278.713 224.471 275.948 224.471 272.976 224.471C272.976 227.512 272.976 230.276 272.976 232.765C272.976 235.253 272.976 238.018 272.976 241.059ZM272.976 241.059C275.948 241.059 278.713 241.059 281.27 241.059C283.827 241.059 286.592 241.059 289.564 241.059C289.564 238.018 289.564 235.253 289.564 232.765C289.564 230.276 289.564 227.512 289.564 224.471C286.592 224.471 283.827 224.471 281.27 224.471C278.713 224.471 275.948 224.471 272.976 224.471C272.976 227.512 272.976 230.276 272.976 232.765C272.976 235.253 272.976 238.018 272.976 241.059ZM272.976 241.059C275.948 241.059 278.713 241.059 281.27 241.059C283.827 241.059 286.592 241.059 289.564 241.059C289.564 238.018 289.564 235.253 289.564 232.765C289.564 230.276 289.564 227.512 289.564 224.471C286.592 224.471 283.827 224.471 281.27 224.471C278.713 224.471 275.948 224.471 272.976 224.471C272.976 227.512 272.976 230.276 272.976 232.765C272.976 235.253 272.976 238.018 272.976 241.059ZM272.976 241.059C275.948 241.059 278.713 241.059 281.27 241.059C283.827 241.059 286.592 241.059 289.564 241.059C289.564 238.018 289.564 235.253 289.564 232.765C289.564 230.276 289.564 227.512 289.564 224.471C286.592 224.471 283.827 224.471 281.27 224.471C278.713 224.471 275.948 224.471 272.976 224.471C272.976 227.512 272.976 230.276 272.976 232.765C272.976 235.253 272.976 238.018 272.976 241.059ZM272.976 241.059C275.948 241.059 278.713 241.059 281.27 241.059C283.827 241.059 286.592 241.059 289.564 241.059C289.564 238.018 289.564 235.253 289.564 232.765C289.564 230.276 289.564 227.512 289.564 224.471C286.592 224.471 283.827 224.471 281.27 224.471C278.713 224.471 275.948 224.471 272.976 224.471C272.976 227.512 272.976 230.276 272.976 232.765C272.976 235.253 272.976 238.018 272.976 241.059ZM206.623 224.471C209.595 224.471 212.36 224.471 214.917 224.471C217.474 224.471 220.239 224.471 223.211 224.471C223.211 221.429 223.211 218.665 223.211 216.176C223.211 213.688 223.211 210.924 223.211 207.882C220.239 207.882 217.474 207.882 214.917 207.882C212.36 207.882 209.595 207.882 206.623 207.882C206.623 210.924 206.623 213.688 206.623 216.176C206.623 218.665 206.623 221.429 206.623 224.471ZM206.623 224.471C209.595 224.471 212.36 224.471 214.917 224.471C217.474 224.471 220.239 224.471 223.211 224.471C223.211 221.429 223.211 218.665 223.211 216.176C223.211 213.688 223.211 210.924 223.211 207.882C220.239 207.882 217.474 207.882 214.917 207.882C212.36 207.882 209.595 207.882 206.623 207.882C206.623 210.924 206.623 213.688 206.623 216.176C206.623 218.665 206.623 221.429 206.623 224.471ZM206.623 224.471C209.595 224.471 212.36 224.471 214.917 224.471C217.474 224.471 220.239 224.471 223.211 224.471C223.211 221.429 223.211 218.665 223.211 216.176C223.211 213.688 223.211 210.924 223.211 207.882C220.239 207.882 217.474 207.882 214.917 207.882C212.36 207.882 209.595 207.882 206.623 207.882C206.623 210.924 206.623 213.688 206.623 216.176C206.623 218.665 206.623 221.429 206.623 224.471ZM206.623 224.471C209.595 224.471 212.36 224.471 214.917 224.471C217.474 224.471 220.239 224.471 223.211 224.471C223.211 221.429 223.211 218.665 223.211 216.176C223.211 213.688 223.211 210.924 223.211 207.882C220.239 207.882 217.474 207.882 214.917 207.882C212.36 207.882 209.595 207.882 206.623 207.882C206.623 210.924 206.623 213.688 206.623 216.176C206.623 218.665 206.623 221.429 206.623 224.471ZM206.623 224.471C209.595 224.471 212.36 224.471 214.917 224.471C217.474 224.471 220.239 224.471 223.211 224.471C223.211 221.429 223.211 218.665 223.211 216.176C223.211 213.688 223.211 210.924 223.211 207.882C220.239 207.882 217.474 207.882 214.917 207.882C212.36 207.882 209.595 207.882 206.623 207.882C206.623 210.924 206.623 213.688 206.623 216.176C206.623 218.665 206.623 221.429 206.623 224.471ZM206.623 224.471C209.595 224.471 212.36 224.471 214.917 224.471C217.474 224.471 220.239 224.471 223.211 224.471C223.211 221.429 223.211 218.665 223.211 216.176C223.211 213.688 223.211 210.924 223.211 207.882C220.239 207.882 217.474 207.882 214.917 207.882C212.36 207.882 209.595 207.882 206.623 207.882C206.623 210.924 206.623 213.688 206.623 216.176C206.623 218.665 206.623 221.429 206.623 224.471ZM206.623 224.471C209.595 224.471 212.36 224.471 214.917 224.471C217.474 224.471 220.239 224.471 223.211 224.471C223.211 221.429 223.211 218.665 223.211 216.176C223.211 213.688 223.211 210.924 223.211 207.882C220.239 207.882 217.474 207.882 214.917 207.882C212.36 207.882 209.595 207.882 206.623 207.882C206.623 210.924 206.623 213.688 206.623 216.176C206.623 218.665 206.623 221.429 206.623 224.471ZM206.623 224.471C209.595 224.471 212.36 224.471 214.917 224.471C217.474 224.471 220.239 224.471 223.211 224.471C223.211 221.429 223.211 218.665 223.211 216.176C223.211 213.688 223.211 210.924 223.211 207.882C220.239 207.882 217.474 207.882 214.917 207.882C212.36 207.882 209.595 207.882 206.623 207.882C206.623 210.924 206.623 213.688 206.623 216.176C206.623 218.665 206.623 221.429 206.623 224.471ZM206.623 224.471C209.595 224.471 212.36 224.471 214.917 224.471C217.474 224.471 220.239 224.471 223.211 224.471C223.211 221.429 223.211 218.665 223.211 216.176C223.211 213.688 223.211 210.924 223.211 207.882C220.239 207.882 217.474 207.882 214.917 207.882C212.36 207.882 209.595 207.882 206.623 207.882C206.623 210.924 206.623 213.688 206.623 216.176C206.623 218.665 206.623 221.429 206.623 224.471ZM223.211 224.471C226.183 224.471 228.948 224.471 231.505 224.471C234.063 224.471 236.827 224.471 239.799 224.471C239.799 221.429 239.799 218.665 239.799 216.176C239.799 213.688 239.799 210.924 239.799 207.882C236.827 207.882 234.063 207.882 231.505 207.882C228.948 207.882 226.183 207.882 223.211 207.882C223.211 210.924 223.211 213.688 223.211 216.176C223.211 218.665 223.211 221.429 223.211 224.471ZM223.211 224.471C226.183 224.471 228.948 224.471 231.505 224.471C234.063 224.471 236.827 224.471 239.799 224.471C239.799 221.429 239.799 218.665 239.799 216.176C239.799 213.688 239.799 210.924 239.799 207.882C236.827 207.882 234.063 207.882 231.505 207.882C228.948 207.882 226.183 207.882 223.211 207.882C223.211 210.924 223.211 213.688 223.211 216.176C223.211 218.665 223.211 221.429 223.211 224.471ZM223.211 224.471C226.183 224.471 228.948 224.471 231.505 224.471C234.063 224.471 236.827 224.471 239.799 224.471C239.799 221.429 239.799 218.665 239.799 216.176C239.799 213.688 239.799 210.924 239.799 207.882C236.827 207.882 234.063 207.882 231.505 207.882C228.948 207.882 226.183 207.882 223.211 207.882C223.211 210.924 223.211 213.688 223.211 216.176C223.211 218.665 223.211 221.429 223.211 224.471ZM223.211 224.471C226.183 224.471 228.948 224.471 231.505 224.471C234.063 224.471 236.827 224.471 239.799 224.471C239.799 221.429 239.799 218.665 239.799 216.176C239.799 213.688 239.799 210.924 239.799 207.882C236.827 207.882 234.063 207.882 231.505 207.882C228.948 207.882 226.183 207.882 223.211 207.882C223.211 210.924 223.211 213.688 223.211 216.176C223.211 218.665 223.211 221.429 223.211 224.471ZM223.211 224.471C226.183 224.471 228.948 224.471 231.505 224.471C234.063 224.471 236.827 224.471 239.799 224.471C239.799 221.429 239.799 218.665 239.799 216.176C239.799 213.688 239.799 210.924 239.799 207.882C236.827 207.882 234.063 207.882 231.505 207.882C228.948 207.882 226.183 207.882 223.211 207.882C223.211 210.924 223.211 213.688 223.211 216.176C223.211 218.665 223.211 221.429 223.211 224.471ZM223.211 224.471C226.183 224.471 228.948 224.471 231.505 224.471C234.063 224.471 236.827 224.471 239.799 224.471C239.799 221.429 239.799 218.665 239.799 216.176C239.799 213.688 239.799 210.924 239.799 207.882C236.827 207.882 234.063 207.882 231.505 207.882C228.948 207.882 226.183 207.882 223.211 207.882C223.211 210.924 223.211 213.688 223.211 216.176C223.211 218.665 223.211 221.429 223.211 224.471ZM223.211 224.471C226.183 224.471 228.948 224.471 231.505 224.471C234.063 224.471 236.827 224.471 239.799 224.471C239.799 221.429 239.799 218.665 239.799 216.176C239.799 213.688 239.799 210.924 239.799 207.882C236.827 207.882 234.063 207.882 231.505 207.882C228.948 207.882 226.183 207.882 223.211 207.882C223.211 210.924 223.211 213.688 223.211 216.176C223.211 218.665 223.211 221.429 223.211 224.471ZM223.211 224.471C226.183 224.471 228.948 224.471 231.505 224.471C234.063 224.471 236.827 224.471 239.799 224.471C239.799 221.429 239.799 218.665 239.799 216.176C239.799 213.688 239.799 210.924 239.799 207.882C236.827 207.882 234.063 207.882 231.505 207.882C228.948 207.882 226.183 207.882 223.211 207.882C223.211 210.924 223.211 213.688 223.211 216.176C223.211 218.665 223.211 221.429 223.211 224.471ZM223.211 224.471C226.183 224.471 228.948 224.471 231.505 224.471C234.063 224.471 236.827 224.471 239.799 224.471C239.799 221.429 239.799 218.665 239.799 216.176C239.799 213.688 239.799 210.924 239.799 207.882C236.827 207.882 234.063 207.882 231.505 207.882C228.948 207.882 226.183 207.882 223.211 207.882C223.211 210.924 223.211 213.688 223.211 216.176C223.211 218.665 223.211 221.429 223.211 224.471ZM272.976 224.471C275.948 224.471 278.713 224.471 281.27 224.471C283.827 224.471 286.592 224.471 289.564 224.471C289.564 221.429 289.564 218.665 289.564 216.176C289.564 213.688 289.564 210.924 289.564 207.882C286.592 207.882 283.827 207.882 281.27 207.882C278.713 207.882 275.948 207.882 272.976 207.882C272.976 210.924 272.976 213.688 272.976 216.176C272.976 218.665 272.976 221.429 272.976 224.471ZM272.976 224.471C275.948 224.471 278.713 224.471 281.27 224.471C283.827 224.471 286.592 224.471 289.564 224.471C289.564 221.429 289.564 218.665 289.564 216.176C289.564 213.688 289.564 210.924 289.564 207.882C286.592 207.882 283.827 207.882 281.27 207.882C278.713 207.882 275.948 207.882 272.976 207.882C272.976 210.924 272.976 213.688 272.976 216.176C272.976 218.665 272.976 221.429 272.976 224.471ZM272.976 224.471C275.948 224.471 278.713 224.471 281.27 224.471C283.827 224.471 286.592 224.471 289.564 224.471C289.564 221.429 289.564 218.665 289.564 216.176C289.564 213.688 289.564 210.924 289.564 207.882C286.592 207.882 283.827 207.882 281.27 207.882C278.713 207.882 275.948 207.882 272.976 207.882C272.976 210.924 272.976 213.688 272.976 216.176C272.976 218.665 272.976 221.429 272.976 224.471ZM272.976 224.471C275.948 224.471 278.713 224.471 281.27 224.471C283.827 224.471 286.592 224.471 289.564 224.471C289.564 221.429 289.564 218.665 289.564 216.176C289.564 213.688 289.564 210.924 289.564 207.882C286.592 207.882 283.827 207.882 281.27 207.882C278.713 207.882 275.948 207.882 272.976 207.882C272.976 210.924 272.976 213.688 272.976 216.176C272.976 218.665 272.976 221.429 272.976 224.471ZM272.976 224.471C275.948 224.471 278.713 224.471 281.27 224.471C283.827 224.471 286.592 224.471 289.564 224.471C289.564 221.429 289.564 218.665 289.564 216.176C289.564 213.688 289.564 210.924 289.564 207.882C286.592 207.882 283.827 207.882 281.27 207.882C278.713 207.882 275.948 207.882 272.976 207.882C272.976 210.924 272.976 213.688 272.976 216.176C272.976 218.665 272.976 221.429 272.976 224.471ZM272.976 224.471C275.948 224.471 278.713 224.471 281.27 224.471C283.827 224.471 286.592 224.471 289.564 224.471C289.564 221.429 289.564 218.665 289.564 216.176C289.564 213.688 289.564 210.924 289.564 207.882C286.592 207.882 283.827 207.882 281.27 207.882C278.713 207.882 275.948 207.882 272.976 207.882C272.976 210.924 272.976 213.688 272.976 216.176C272.976 218.665 272.976 221.429 272.976 224.471ZM272.976 224.471C275.948 224.471 278.713 224.471 281.27 224.471C283.827 224.471 286.592 224.471 289.564 224.471C289.564 221.429 289.564 218.665 289.564 216.176C289.564 213.688 289.564 210.924 289.564 207.882C286.592 207.882 283.827 207.882 281.27 207.882C278.713 207.882 275.948 207.882 272.976 207.882C272.976 210.924 272.976 213.688 272.976 216.176C272.976 218.665 272.976 221.429 272.976 224.471ZM272.976 224.471C275.948 224.471 278.713 224.471 281.27 224.471C283.827 224.471 286.592 224.471 289.564 224.471C289.564 221.429 289.564 218.665 289.564 216.176C289.564 213.688 289.564 210.924 289.564 207.882C286.592 207.882 283.827 207.882 281.27 207.882C278.713 207.882 275.948 207.882 272.976 207.882C272.976 210.924 272.976 213.688 272.976 216.176C272.976 218.665 272.976 221.429 272.976 224.471ZM272.976 224.471C275.948 224.471 278.713 224.471 281.27 224.471C283.827 224.471 286.592 224.471 289.564 224.471C289.564 221.429 289.564 218.665 289.564 216.176C289.564 213.688 289.564 210.924 289.564 207.882C286.592 207.882 283.827 207.882 281.27 207.882C278.713 207.882 275.948 207.882 272.976 207.882C272.976 210.924 272.976 213.688 272.976 216.176C272.976 218.665 272.976 221.429 272.976 224.471ZM206.623 207.882C209.595 207.882 212.36 207.882 214.917 207.882C217.474 207.882 220.239 207.882 223.211 207.882C223.211 204.841 223.211 202.076 223.211 199.588C223.211 197.1 223.211 194.335 223.211 191.294C220.239 191.294 217.474 191.294 214.917 191.294C212.36 191.294 209.595 191.294 206.623 191.294C206.623 194.335 206.623 197.1 206.623 199.588C206.623 202.076 206.623 204.841 206.623 207.882ZM206.623 207.882C209.595 207.882 212.36 207.882 214.917 207.882C217.474 207.882 220.239 207.882 223.211 207.882C223.211 204.841 223.211 202.076 223.211 199.588C223.211 197.1 223.211 194.335 223.211 191.294C220.239 191.294 217.474 191.294 214.917 191.294C212.36 191.294 209.595 191.294 206.623 191.294C206.623 194.335 206.623 197.1 206.623 199.588C206.623 202.076 206.623 204.841 206.623 207.882ZM206.623 207.882C209.595 207.882 212.36 207.882 214.917 207.882C217.474 207.882 220.239 207.882 223.211 207.882C223.211 204.841 223.211 202.076 223.211 199.588C223.211 197.1 223.211 194.335 223.211 191.294C220.239 191.294 217.474 191.294 214.917 191.294C212.36 191.294 209.595 191.294 206.623 191.294C206.623 194.335 206.623 197.1 206.623 199.588C206.623 202.076 206.623 204.841 206.623 207.882ZM206.623 207.882C209.595 207.882 212.36 207.882 214.917 207.882C217.474 207.882 220.239 207.882 223.211 207.882C223.211 204.841 223.211 202.076 223.211 199.588C223.211 197.1 223.211 194.335 223.211 191.294C220.239 191.294 217.474 191.294 214.917 191.294C212.36 191.294 209.595 191.294 206.623 191.294C206.623 194.335 206.623 197.1 206.623 199.588C206.623 202.076 206.623 204.841 206.623 207.882ZM206.623 207.882C209.595 207.882 212.36 207.882 214.917 207.882C217.474 207.882 220.239 207.882 223.211 207.882C223.211 204.841 223.211 202.076 223.211 199.588C223.211 197.1 223.211 194.335 223.211 191.294C220.239 191.294 217.474 191.294 214.917 191.294C212.36 191.294 209.595 191.294 206.623 191.294C206.623 194.335 206.623 197.1 206.623 199.588C206.623 202.076 206.623 204.841 206.623 207.882ZM206.623 207.882C209.595 207.882 212.36 207.882 214.917 207.882C217.474 207.882 220.239 207.882 223.211 207.882C223.211 204.841 223.211 202.076 223.211 199.588C223.211 197.1 223.211 194.335 223.211 191.294C220.239 191.294 217.474 191.294 214.917 191.294C212.36 191.294 209.595 191.294 206.623 191.294C206.623 194.335 206.623 197.1 206.623 199.588C206.623 202.076 206.623 204.841 206.623 207.882ZM206.623 207.882C209.595 207.882 212.36 207.882 214.917 207.882C217.474 207.882 220.239 207.882 223.211 207.882C223.211 204.841 223.211 202.076 223.211 199.588C223.211 197.1 223.211 194.335 223.211 191.294C220.239 191.294 217.474 191.294 214.917 191.294C212.36 191.294 209.595 191.294 206.623 191.294C206.623 194.335 206.623 197.1 206.623 199.588C206.623 202.076 206.623 204.841 206.623 207.882ZM206.623 207.882C209.595 207.882 212.36 207.882 214.917 207.882C217.474 207.882 220.239 207.882 223.211 207.882C223.211 204.841 223.211 202.076 223.211 199.588C223.211 197.1 223.211 194.335 223.211 191.294C220.239 191.294 217.474 191.294 214.917 191.294C212.36 191.294 209.595 191.294 206.623 191.294C206.623 194.335 206.623 197.1 206.623 199.588C206.623 202.076 206.623 204.841 206.623 207.882ZM206.623 207.882C209.595 207.882 212.36 207.882 214.917 207.882C217.474 207.882 220.239 207.882 223.211 207.882C223.211 204.841 223.211 202.076 223.211 199.588C223.211 197.1 223.211 194.335 223.211 191.294C220.239 191.294 217.474 191.294 214.917 191.294C212.36 191.294 209.595 191.294 206.623 191.294C206.623 194.335 206.623 197.1 206.623 199.588C206.623 202.076 206.623 204.841 206.623 207.882ZM239.799 207.882C242.771 207.882 245.536 207.882 248.093 207.882C250.651 207.882 253.415 207.882 256.388 207.882C256.388 204.841 256.388 202.076 256.388 199.588C256.388 197.1 256.388 194.335 256.388 191.294C253.415 191.294 250.651 191.294 248.093 191.294C245.536 191.294 242.771 191.294 239.799 191.294C239.799 194.335 239.799 197.1 239.799 199.588C239.799 202.076 239.799 204.841 239.799 207.882ZM239.799 207.882C242.771 207.882 245.536 207.882 248.093 207.882C250.651 207.882 253.415 207.882 256.388 207.882C256.388 204.841 256.388 202.076 256.388 199.588C256.388 197.1 256.388 194.335 256.388 191.294C253.415 191.294 250.651 191.294 248.093 191.294C245.536 191.294 242.771 191.294 239.799 191.294C239.799 194.335 239.799 197.1 239.799 199.588C239.799 202.076 239.799 204.841 239.799 207.882ZM239.799 207.882C242.771 207.882 245.536 207.882 248.093 207.882C250.651 207.882 253.415 207.882 256.388 207.882C256.388 204.841 256.388 202.076 256.388 199.588C256.388 197.1 256.388 194.335 256.388 191.294C253.415 191.294 250.651 191.294 248.093 191.294C245.536 191.294 242.771 191.294 239.799 191.294C239.799 194.335 239.799 197.1 239.799 199.588C239.799 202.076 239.799 204.841 239.799 207.882ZM239.799 207.882C242.771 207.882 245.536 207.882 248.093 207.882C250.651 207.882 253.415 207.882 256.388 207.882C256.388 204.841 256.388 202.076 256.388 199.588C256.388 197.1 256.388 194.335 256.388 191.294C253.415 191.294 250.651 191.294 248.093 191.294C245.536 191.294 242.771 191.294 239.799 191.294C239.799 194.335 239.799 197.1 239.799 199.588C239.799 202.076 239.799 204.841 239.799 207.882ZM239.799 207.882C242.771 207.882 245.536 207.882 248.093 207.882C250.651 207.882 253.415 207.882 256.388 207.882C256.388 204.841 256.388 202.076 256.388 199.588C256.388 197.1 256.388 194.335 256.388 191.294C253.415 191.294 250.651 191.294 248.093 191.294C245.536 191.294 242.771 191.294 239.799 191.294C239.799 194.335 239.799 197.1 239.799 199.588C239.799 202.076 239.799 204.841 239.799 207.882ZM239.799 207.882C242.771 207.882 245.536 207.882 248.093 207.882C250.651 207.882 253.415 207.882 256.388 207.882C256.388 204.841 256.388 202.076 256.388 199.588C256.388 197.1 256.388 194.335 256.388 191.294C253.415 191.294 250.651 191.294 248.093 191.294C245.536 191.294 242.771 191.294 239.799 191.294C239.799 194.335 239.799 197.1 239.799 199.588C239.799 202.076 239.799 204.841 239.799 207.882ZM239.799 207.882C242.771 207.882 245.536 207.882 248.093 207.882C250.651 207.882 253.415 207.882 256.388 207.882C256.388 204.841 256.388 202.076 256.388 199.588C256.388 197.1 256.388 194.335 256.388 191.294C253.415 191.294 250.651 191.294 248.093 191.294C245.536 191.294 242.771 191.294 239.799 191.294C239.799 194.335 239.799 197.1 239.799 199.588C239.799 202.076 239.799 204.841 239.799 207.882ZM239.799 207.882C242.771 207.882 245.536 207.882 248.093 207.882C250.651 207.882 253.415 207.882 256.388 207.882C256.388 204.841 256.388 202.076 256.388 199.588C256.388 197.1 256.388 194.335 256.388 191.294C253.415 191.294 250.651 191.294 248.093 191.294C245.536 191.294 242.771 191.294 239.799 191.294C239.799 194.335 239.799 197.1 239.799 199.588C239.799 202.076 239.799 204.841 239.799 207.882ZM239.799 207.882C242.771 207.882 245.536 207.882 248.093 207.882C250.651 207.882 253.415 207.882 256.388 207.882C256.388 204.841 256.388 202.076 256.388 199.588C256.388 197.1 256.388 194.335 256.388 191.294C253.415 191.294 250.651 191.294 248.093 191.294C245.536 191.294 242.771 191.294 239.799 191.294C239.799 194.335 239.799 197.1 239.799 199.588C239.799 202.076 239.799 204.841 239.799 207.882ZM256.388 207.882C259.36 207.882 262.124 207.882 264.682 207.882C267.239 207.882 270.004 207.882 272.976 207.882C272.976 204.841 272.976 202.076 272.976 199.588C272.976 197.1 272.976 194.335 272.976 191.294C270.004 191.294 267.239 191.294 264.682 191.294C262.124 191.294 259.36 191.294 256.388 191.294C256.388 194.335 256.388 197.1 256.388 199.588C256.388 202.076 256.388 204.841 256.388 207.882ZM256.388 207.882C259.36 207.882 262.124 207.882 264.682 207.882C267.239 207.882 270.004 207.882 272.976 207.882C272.976 204.841 272.976 202.076 272.976 199.588C272.976 197.1 272.976 194.335 272.976 191.294C270.004 191.294 267.239 191.294 264.682 191.294C262.124 191.294 259.36 191.294 256.388 191.294C256.388 194.335 256.388 197.1 256.388 199.588C256.388 202.076 256.388 204.841 256.388 207.882ZM256.388 207.882C259.36 207.882 262.124 207.882 264.682 207.882C267.239 207.882 270.004 207.882 272.976 207.882C272.976 204.841 272.976 202.076 272.976 199.588C272.976 197.1 272.976 194.335 272.976 191.294C270.004 191.294 267.239 191.294 264.682 191.294C262.124 191.294 259.36 191.294 256.388 191.294C256.388 194.335 256.388 197.1 256.388 199.588C256.388 202.076 256.388 204.841 256.388 207.882ZM256.388 207.882C259.36 207.882 262.124 207.882 264.682 207.882C267.239 207.882 270.004 207.882 272.976 207.882C272.976 204.841 272.976 202.076 272.976 199.588C272.976 197.1 272.976 194.335 272.976 191.294C270.004 191.294 267.239 191.294 264.682 191.294C262.124 191.294 259.36 191.294 256.388 191.294C256.388 194.335 256.388 197.1 256.388 199.588C256.388 202.076 256.388 204.841 256.388 207.882ZM256.388 207.882C259.36 207.882 262.124 207.882 264.682 207.882C267.239 207.882 270.004 207.882 272.976 207.882C272.976 204.841 272.976 202.076 272.976 199.588C272.976 197.1 272.976 194.335 272.976 191.294C270.004 191.294 267.239 191.294 264.682 191.294C262.124 191.294 259.36 191.294 256.388 191.294C256.388 194.335 256.388 197.1 256.388 199.588C256.388 202.076 256.388 204.841 256.388 207.882ZM256.388 207.882C259.36 207.882 262.124 207.882 264.682 207.882C267.239 207.882 270.004 207.882 272.976 207.882C272.976 204.841 272.976 202.076 272.976 199.588C272.976 197.1 272.976 194.335 272.976 191.294C270.004 191.294 267.239 191.294 264.682 191.294C262.124 191.294 259.36 191.294 256.388 191.294C256.388 194.335 256.388 197.1 256.388 199.588C256.388 202.076 256.388 204.841 256.388 207.882ZM256.388 207.882C259.36 207.882 262.124 207.882 264.682 207.882C267.239 207.882 270.004 207.882 272.976 207.882C272.976 204.841 272.976 202.076 272.976 199.588C272.976 197.1 272.976 194.335 272.976 191.294C270.004 191.294 267.239 191.294 264.682 191.294C262.124 191.294 259.36 191.294 256.388 191.294C256.388 194.335 256.388 197.1 256.388 199.588C256.388 202.076 256.388 204.841 256.388 207.882ZM256.388 207.882C259.36 207.882 262.124 207.882 264.682 207.882C267.239 207.882 270.004 207.882 272.976 207.882C272.976 204.841 272.976 202.076 272.976 199.588C272.976 197.1 272.976 194.335 272.976 191.294C270.004 191.294 267.239 191.294 264.682 191.294C262.124 191.294 259.36 191.294 256.388 191.294C256.388 194.335 256.388 197.1 256.388 199.588C256.388 202.076 256.388 204.841 256.388 207.882ZM256.388 207.882C259.36 207.882 262.124 207.882 264.682 207.882C267.239 207.882 270.004 207.882 272.976 207.882C272.976 204.841 272.976 202.076 272.976 199.588C272.976 197.1 272.976 194.335 272.976 191.294C270.004 191.294 267.239 191.294 264.682 191.294C262.124 191.294 259.36 191.294 256.388 191.294C256.388 194.335 256.388 197.1 256.388 199.588C256.388 202.076 256.388 204.841 256.388 207.882Z" fill="#6F4C5B"/>
</g>
</svg>
