<svg width="500" height="500" viewBox="0 0 500 500" fill="none" xmlns="http://www.w3.org/2000/svg">
<g id="pq-q">
<path id="q" d="M272.976 373.765C275.948 373.765 278.713 373.765 281.27 373.765C283.827 373.765 286.592 373.765 289.564 373.765C289.564 370.724 289.564 367.959 289.564 365.471C289.564 362.982 289.564 360.218 289.564 357.176C286.592 357.176 283.827 357.176 281.27 357.176C278.713 357.176 275.948 357.176 272.976 357.176C272.976 360.218 272.976 362.982 272.976 365.471C272.976 367.959 272.976 370.724 272.976 373.765ZM272.976 373.765C275.948 373.765 278.713 373.765 281.27 373.765C283.827 373.765 286.592 373.765 289.564 373.765C289.564 370.724 289.564 367.959 289.564 365.471C289.564 362.982 289.564 360.218 289.564 357.176C286.592 357.176 283.827 357.176 281.27 357.176C278.713 357.176 275.948 357.176 272.976 357.176C272.976 360.218 272.976 362.982 272.976 365.471C272.976 367.959 272.976 370.724 272.976 373.765ZM272.976 373.765C275.948 373.765 278.713 373.765 281.27 373.765C283.827 373.765 286.592 373.765 289.564 373.765C289.564 370.724 289.564 367.959 289.564 365.471C289.564 362.982 289.564 360.218 289.564 357.176C286.592 357.176 283.827 357.176 281.27 357.176C278.713 357.176 275.948 357.176 272.976 357.176C272.976 360.218 272.976 362.982 272.976 365.471C272.976 367.959 272.976 370.724 272.976 373.765ZM272.976 373.765C275.948 373.765 278.713 373.765 281.27 373.765C283.827 373.765 286.592 373.765 289.564 373.765C289.564 370.724 289.564 367.959 289.564 365.471C289.564 362.982 289.564 360.218 289.564 357.176C286.592 357.176 283.827 357.176 281.27 357.176C278.713 357.176 275.948 357.176 272.976 357.176C272.976 360.218 272.976 362.982 272.976 365.471C272.976 367.959 272.976 370.724 272.976 373.765ZM272.976 373.765C275.948 373.765 278.713 373.765 281.27 373.765C283.827 373.765 286.592 373.765 289.564 373.765C289.564 370.724 289.564 367.959 289.564 365.471C289.564 362.982 289.564 360.218 289.564 357.176C286.592 357.176 283.827 357.176 281.27 357.176C278.713 357.176 275.948 357.176 272.976 357.176C272.976 360.218 272.976 362.982 272.976 365.471C272.976 367.959 272.976 370.724 272.976 373.765ZM272.976 373.765C275.948 373.765 278.713 373.765 281.27 373.765C283.827 373.765 286.592 373.765 289.564 373.765C289.564 370.724 289.564 367.959 289.564 365.471C289.564 362.982 289.564 360.218 289.564 357.176C286.592 357.176 283.827 357.176 281.27 357.176C278.713 357.176 275.948 357.176 272.976 357.176C272.976 360.218 272.976 362.982 272.976 365.471C272.976 367.959 272.976 370.724 272.976 373.765ZM272.976 373.765C275.948 373.765 278.713 373.765 281.27 373.765C283.827 373.765 286.592 373.765 289.564 373.765C289.564 370.724 289.564 367.959 289.564 365.471C289.564 362.982 289.564 360.218 289.564 357.176C286.592 357.176 283.827 357.176 281.27 357.176C278.713 357.176 275.948 357.176 272.976 357.176C272.976 360.218 272.976 362.982 272.976 365.471C272.976 367.959 272.976 370.724 272.976 373.765ZM272.976 373.765C275.948 373.765 278.713 373.765 281.27 373.765C283.827 373.765 286.592 373.765 289.564 373.765C289.564 370.724 289.564 367.959 289.564 365.471C289.564 362.982 289.564 360.218 289.564 357.176C286.592 357.176 283.827 357.176 281.27 357.176C278.713 357.176 275.948 357.176 272.976 357.176C272.976 360.218 272.976 362.982 272.976 365.471C272.976 367.959 272.976 370.724 272.976 373.765ZM272.976 373.765C275.948 373.765 278.713 373.765 281.27 373.765C283.827 373.765 286.592 373.765 289.564 373.765C289.564 370.724 289.564 367.959 289.564 365.471C289.564 362.982 289.564 360.218 289.564 357.176C286.592 357.176 283.827 357.176 281.27 357.176C278.713 357.176 275.948 357.176 272.976 357.176C272.976 360.218 272.976 362.982 272.976 365.471C272.976 367.959 272.976 370.724 272.976 373.765ZM272.976 357.176C275.948 357.176 278.713 357.176 281.27 357.176C283.827 357.176 286.592 357.176 289.564 357.176C289.564 354.135 289.564 351.371 289.564 348.882C289.564 346.394 289.564 343.629 289.564 340.588C286.592 340.588 283.827 340.588 281.27 340.588C278.713 340.588 275.948 340.588 272.976 340.588C272.976 343.629 272.976 346.394 272.976 348.882C272.976 351.371 272.976 354.135 272.976 357.176ZM272.976 357.176C275.948 357.176 278.713 357.176 281.27 357.176C283.827 357.176 286.592 357.176 289.564 357.176C289.564 354.135 289.564 351.371 289.564 348.882C289.564 346.394 289.564 343.629 289.564 340.588C286.592 340.588 283.827 340.588 281.27 340.588C278.713 340.588 275.948 340.588 272.976 340.588C272.976 343.629 272.976 346.394 272.976 348.882C272.976 351.371 272.976 354.135 272.976 357.176ZM272.976 357.176C275.948 357.176 278.713 357.176 281.27 357.176C283.827 357.176 286.592 357.176 289.564 357.176C289.564 354.135 289.564 351.371 289.564 348.882C289.564 346.394 289.564 343.629 289.564 340.588C286.592 340.588 283.827 340.588 281.27 340.588C278.713 340.588 275.948 340.588 272.976 340.588C272.976 343.629 272.976 346.394 272.976 348.882C272.976 351.371 272.976 354.135 272.976 357.176ZM272.976 357.176C275.948 357.176 278.713 357.176 281.27 357.176C283.827 357.176 286.592 357.176 289.564 357.176C289.564 354.135 289.564 351.371 289.564 348.882C289.564 346.394 289.564 343.629 289.564 340.588C286.592 340.588 283.827 340.588 281.27 340.588C278.713 340.588 275.948 340.588 272.976 340.588C272.976 343.629 272.976 346.394 272.976 348.882C272.976 351.371 272.976 354.135 272.976 357.176ZM272.976 357.176C275.948 357.176 278.713 357.176 281.27 357.176C283.827 357.176 286.592 357.176 289.564 357.176C289.564 354.135 289.564 351.371 289.564 348.882C289.564 346.394 289.564 343.629 289.564 340.588C286.592 340.588 283.827 340.588 281.27 340.588C278.713 340.588 275.948 340.588 272.976 340.588C272.976 343.629 272.976 346.394 272.976 348.882C272.976 351.371 272.976 354.135 272.976 357.176ZM272.976 357.176C275.948 357.176 278.713 357.176 281.27 357.176C283.827 357.176 286.592 357.176 289.564 357.176C289.564 354.135 289.564 351.371 289.564 348.882C289.564 346.394 289.564 343.629 289.564 340.588C286.592 340.588 283.827 340.588 281.27 340.588C278.713 340.588 275.948 340.588 272.976 340.588C272.976 343.629 272.976 346.394 272.976 348.882C272.976 351.371 272.976 354.135 272.976 357.176ZM272.976 357.176C275.948 357.176 278.713 357.176 281.27 357.176C283.827 357.176 286.592 357.176 289.564 357.176C289.564 354.135 289.564 351.371 289.564 348.882C289.564 346.394 289.564 343.629 289.564 340.588C286.592 340.588 283.827 340.588 281.27 340.588C278.713 340.588 275.948 340.588 272.976 340.588C272.976 343.629 272.976 346.394 272.976 348.882C272.976 351.371 272.976 354.135 272.976 357.176ZM272.976 357.176C275.948 357.176 278.713 357.176 281.27 357.176C283.827 357.176 286.592 357.176 289.564 357.176C289.564 354.135 289.564 351.371 289.564 348.882C289.564 346.394 289.564 343.629 289.564 340.588C286.592 340.588 283.827 340.588 281.27 340.588C278.713 340.588 275.948 340.588 272.976 340.588C272.976 343.629 272.976 346.394 272.976 348.882C272.976 351.371 272.976 354.135 272.976 357.176ZM272.976 357.176C275.948 357.176 278.713 357.176 281.27 357.176C283.827 357.176 286.592 357.176 289.564 357.176C289.564 354.135 289.564 351.371 289.564 348.882C289.564 346.394 289.564 343.629 289.564 340.588C286.592 340.588 283.827 340.588 281.27 340.588C278.713 340.588 275.948 340.588 272.976 340.588C272.976 343.629 272.976 346.394 272.976 348.882C272.976 351.371 272.976 354.135 272.976 357.176ZM272.976 340.588C275.948 340.588 278.713 340.588 281.27 340.588C283.827 340.588 286.592 340.588 289.564 340.588C289.564 337.547 289.564 334.782 289.564 332.294C289.564 329.806 289.564 327.041 289.564 324C286.592 324 283.827 324 281.27 324C278.713 324 275.948 324 272.976 324C272.976 327.041 272.976 329.806 272.976 332.294C272.976 334.782 272.976 337.547 272.976 340.588ZM272.976 340.588C275.948 340.588 278.713 340.588 281.27 340.588C283.827 340.588 286.592 340.588 289.564 340.588C289.564 337.547 289.564 334.782 289.564 332.294C289.564 329.806 289.564 327.041 289.564 324C286.592 324 283.827 324 281.27 324C278.713 324 275.948 324 272.976 324C272.976 327.041 272.976 329.806 272.976 332.294C272.976 334.782 272.976 337.547 272.976 340.588ZM272.976 340.588C275.948 340.588 278.713 340.588 281.27 340.588C283.827 340.588 286.592 340.588 289.564 340.588C289.564 337.547 289.564 334.782 289.564 332.294C289.564 329.806 289.564 327.041 289.564 324C286.592 324 283.827 324 281.27 324C278.713 324 275.948 324 272.976 324C272.976 327.041 272.976 329.806 272.976 332.294C272.976 334.782 272.976 337.547 272.976 340.588ZM272.976 340.588C275.948 340.588 278.713 340.588 281.27 340.588C283.827 340.588 286.592 340.588 289.564 340.588C289.564 337.547 289.564 334.782 289.564 332.294C289.564 329.806 289.564 327.041 289.564 324C286.592 324 283.827 324 281.27 324C278.713 324 275.948 324 272.976 324C272.976 327.041 272.976 329.806 272.976 332.294C272.976 334.782 272.976 337.547 272.976 340.588ZM272.976 340.588C275.948 340.588 278.713 340.588 281.27 340.588C283.827 340.588 286.592 340.588 289.564 340.588C289.564 337.547 289.564 334.782 289.564 332.294C289.564 329.806 289.564 327.041 289.564 324C286.592 324 283.827 324 281.27 324C278.713 324 275.948 324 272.976 324C272.976 327.041 272.976 329.806 272.976 332.294C272.976 334.782 272.976 337.547 272.976 340.588ZM272.976 340.588C275.948 340.588 278.713 340.588 281.27 340.588C283.827 340.588 286.592 340.588 289.564 340.588C289.564 337.547 289.564 334.782 289.564 332.294C289.564 329.806 289.564 327.041 289.564 324C286.592 324 283.827 324 281.27 324C278.713 324 275.948 324 272.976 324C272.976 327.041 272.976 329.806 272.976 332.294C272.976 334.782 272.976 337.547 272.976 340.588ZM272.976 340.588C275.948 340.588 278.713 340.588 281.27 340.588C283.827 340.588 286.592 340.588 289.564 340.588C289.564 337.547 289.564 334.782 289.564 332.294C289.564 329.806 289.564 327.041 289.564 324C286.592 324 283.827 324 281.27 324C278.713 324 275.948 324 272.976 324C272.976 327.041 272.976 329.806 272.976 332.294C272.976 334.782 272.976 337.547 272.976 340.588ZM272.976 340.588C275.948 340.588 278.713 340.588 281.27 340.588C283.827 340.588 286.592 340.588 289.564 340.588C289.564 337.547 289.564 334.782 289.564 332.294C289.564 329.806 289.564 327.041 289.564 324C286.592 324 283.827 324 281.27 324C278.713 324 275.948 324 272.976 324C272.976 327.041 272.976 329.806 272.976 332.294C272.976 334.782 272.976 337.547 272.976 340.588ZM272.976 340.588C275.948 340.588 278.713 340.588 281.27 340.588C283.827 340.588 286.592 340.588 289.564 340.588C289.564 337.547 289.564 334.782 289.564 332.294C289.564 329.806 289.564 327.041 289.564 324C286.592 324 283.827 324 281.27 324C278.713 324 275.948 324 272.976 324C272.976 327.041 272.976 329.806 272.976 332.294C272.976 334.782 272.976 337.547 272.976 340.588ZM223.211 324C226.183 324 228.948 324 231.505 324C234.063 324 236.827 324 239.799 324C239.799 320.959 239.799 318.194 239.799 315.706C239.799 313.218 239.799 310.453 239.799 307.412C236.827 307.412 234.063 307.412 231.505 307.412C228.948 307.412 226.183 307.412 223.211 307.412C223.211 310.453 223.211 313.218 223.211 315.706C223.211 318.194 223.211 320.959 223.211 324ZM223.211 324C226.183 324 228.948 324 231.505 324C234.063 324 236.827 324 239.799 324C239.799 320.959 239.799 318.194 239.799 315.706C239.799 313.218 239.799 310.453 239.799 307.412C236.827 307.412 234.063 307.412 231.505 307.412C228.948 307.412 226.183 307.412 223.211 307.412C223.211 310.453 223.211 313.218 223.211 315.706C223.211 318.194 223.211 320.959 223.211 324ZM223.211 324C226.183 324 228.948 324 231.505 324C234.063 324 236.827 324 239.799 324C239.799 320.959 239.799 318.194 239.799 315.706C239.799 313.218 239.799 310.453 239.799 307.412C236.827 307.412 234.063 307.412 231.505 307.412C228.948 307.412 226.183 307.412 223.211 307.412C223.211 310.453 223.211 313.218 223.211 315.706C223.211 318.194 223.211 320.959 223.211 324ZM223.211 324C226.183 324 228.948 324 231.505 324C234.063 324 236.827 324 239.799 324C239.799 320.959 239.799 318.194 239.799 315.706C239.799 313.218 239.799 310.453 239.799 307.412C236.827 307.412 234.063 307.412 231.505 307.412C228.948 307.412 226.183 307.412 223.211 307.412C223.211 310.453 223.211 313.218 223.211 315.706C223.211 318.194 223.211 320.959 223.211 324ZM223.211 324C226.183 324 228.948 324 231.505 324C234.063 324 236.827 324 239.799 324C239.799 320.959 239.799 318.194 239.799 315.706C239.799 313.218 239.799 310.453 239.799 307.412C236.827 307.412 234.063 307.412 231.505 307.412C228.948 307.412 226.183 307.412 223.211 307.412C223.211 310.453 223.211 313.218 223.211 315.706C223.211 318.194 223.211 320.959 223.211 324ZM223.211 324C226.183 324 228.948 324 231.505 324C234.063 324 236.827 324 239.799 324C239.799 320.959 239.799 318.194 239.799 315.706C239.799 313.218 239.799 310.453 239.799 307.412C236.827 307.412 234.063 307.412 231.505 307.412C228.948 307.412 226.183 307.412 223.211 307.412C223.211 310.453 223.211 313.218 223.211 315.706C223.211 318.194 223.211 320.959 223.211 324ZM223.211 324C226.183 324 228.948 324 231.505 324C234.063 324 236.827 324 239.799 324C239.799 320.959 239.799 318.194 239.799 315.706C239.799 313.218 239.799 310.453 239.799 307.412C236.827 307.412 234.063 307.412 231.505 307.412C228.948 307.412 226.183 307.412 223.211 307.412C223.211 310.453 223.211 313.218 223.211 315.706C223.211 318.194 223.211 320.959 223.211 324ZM223.211 324C226.183 324 228.948 324 231.505 324C234.063 324 236.827 324 239.799 324C239.799 320.959 239.799 318.194 239.799 315.706C239.799 313.218 239.799 310.453 239.799 307.412C236.827 307.412 234.063 307.412 231.505 307.412C228.948 307.412 226.183 307.412 223.211 307.412C223.211 310.453 223.211 313.218 223.211 315.706C223.211 318.194 223.211 320.959 223.211 324ZM223.211 324C226.183 324 228.948 324 231.505 324C234.063 324 236.827 324 239.799 324C239.799 320.959 239.799 318.194 239.799 315.706C239.799 313.218 239.799 310.453 239.799 307.412C236.827 307.412 234.063 307.412 231.505 307.412C228.948 307.412 226.183 307.412 223.211 307.412C223.211 310.453 223.211 313.218 223.211 315.706C223.211 318.194 223.211 320.959 223.211 324ZM239.799 324C242.771 324 245.536 324 248.093 324C250.651 324 253.415 324 256.388 324C256.388 320.959 256.388 318.194 256.388 315.706C256.388 313.218 256.388 310.453 256.388 307.412C253.415 307.412 250.651 307.412 248.093 307.412C245.536 307.412 242.771 307.412 239.799 307.412C239.799 310.453 239.799 313.218 239.799 315.706C239.799 318.194 239.799 320.959 239.799 324ZM239.799 324C242.771 324 245.536 324 248.093 324C250.651 324 253.415 324 256.388 324C256.388 320.959 256.388 318.194 256.388 315.706C256.388 313.218 256.388 310.453 256.388 307.412C253.415 307.412 250.651 307.412 248.093 307.412C245.536 307.412 242.771 307.412 239.799 307.412C239.799 310.453 239.799 313.218 239.799 315.706C239.799 318.194 239.799 320.959 239.799 324ZM239.799 324C242.771 324 245.536 324 248.093 324C250.651 324 253.415 324 256.388 324C256.388 320.959 256.388 318.194 256.388 315.706C256.388 313.218 256.388 310.453 256.388 307.412C253.415 307.412 250.651 307.412 248.093 307.412C245.536 307.412 242.771 307.412 239.799 307.412C239.799 310.453 239.799 313.218 239.799 315.706C239.799 318.194 239.799 320.959 239.799 324ZM239.799 324C242.771 324 245.536 324 248.093 324C250.651 324 253.415 324 256.388 324C256.388 320.959 256.388 318.194 256.388 315.706C256.388 313.218 256.388 310.453 256.388 307.412C253.415 307.412 250.651 307.412 248.093 307.412C245.536 307.412 242.771 307.412 239.799 307.412C239.799 310.453 239.799 313.218 239.799 315.706C239.799 318.194 239.799 320.959 239.799 324ZM239.799 324C242.771 324 245.536 324 248.093 324C250.651 324 253.415 324 256.388 324C256.388 320.959 256.388 318.194 256.388 315.706C256.388 313.218 256.388 310.453 256.388 307.412C253.415 307.412 250.651 307.412 248.093 307.412C245.536 307.412 242.771 307.412 239.799 307.412C239.799 310.453 239.799 313.218 239.799 315.706C239.799 318.194 239.799 320.959 239.799 324ZM239.799 324C242.771 324 245.536 324 248.093 324C250.651 324 253.415 324 256.388 324C256.388 320.959 256.388 318.194 256.388 315.706C256.388 313.218 256.388 310.453 256.388 307.412C253.415 307.412 250.651 307.412 248.093 307.412C245.536 307.412 242.771 307.412 239.799 307.412C239.799 310.453 239.799 313.218 239.799 315.706C239.799 318.194 239.799 320.959 239.799 324ZM239.799 324C242.771 324 245.536 324 248.093 324C250.651 324 253.415 324 256.388 324C256.388 320.959 256.388 318.194 256.388 315.706C256.388 313.218 256.388 310.453 256.388 307.412C253.415 307.412 250.651 307.412 248.093 307.412C245.536 307.412 242.771 307.412 239.799 307.412C239.799 310.453 239.799 313.218 239.799 315.706C239.799 318.194 239.799 320.959 239.799 324ZM239.799 324C242.771 324 245.536 324 248.093 324C250.651 324 253.415 324 256.388 324C256.388 320.959 256.388 318.194 256.388 315.706C256.388 313.218 256.388 310.453 256.388 307.412C253.415 307.412 250.651 307.412 248.093 307.412C245.536 307.412 242.771 307.412 239.799 307.412C239.799 310.453 239.799 313.218 239.799 315.706C239.799 318.194 239.799 320.959 239.799 324ZM239.799 324C242.771 324 245.536 324 248.093 324C250.651 324 253.415 324 256.388 324C256.388 320.959 256.388 318.194 256.388 315.706C256.388 313.218 256.388 310.453 256.388 307.412C253.415 307.412 250.651 307.412 248.093 307.412C245.536 307.412 242.771 307.412 239.799 307.412C239.799 310.453 239.799 313.218 239.799 315.706C239.799 318.194 239.799 320.959 239.799 324ZM272.976 324C275.948 324 278.713 324 281.27 324C283.827 324 286.592 324 289.564 324C289.564 320.959 289.564 318.194 289.564 315.706C289.564 313.218 289.564 310.453 289.564 307.412C286.592 307.412 283.827 307.412 281.27 307.412C278.713 307.412 275.948 307.412 272.976 307.412C272.976 310.453 272.976 313.218 272.976 315.706C272.976 318.194 272.976 320.959 272.976 324ZM272.976 324C275.948 324 278.713 324 281.27 324C283.827 324 286.592 324 289.564 324C289.564 320.959 289.564 318.194 289.564 315.706C289.564 313.218 289.564 310.453 289.564 307.412C286.592 307.412 283.827 307.412 281.27 307.412C278.713 307.412 275.948 307.412 272.976 307.412C272.976 310.453 272.976 313.218 272.976 315.706C272.976 318.194 272.976 320.959 272.976 324ZM272.976 324C275.948 324 278.713 324 281.27 324C283.827 324 286.592 324 289.564 324C289.564 320.959 289.564 318.194 289.564 315.706C289.564 313.218 289.564 310.453 289.564 307.412C286.592 307.412 283.827 307.412 281.27 307.412C278.713 307.412 275.948 307.412 272.976 307.412C272.976 310.453 272.976 313.218 272.976 315.706C272.976 318.194 272.976 320.959 272.976 324ZM272.976 324C275.948 324 278.713 324 281.27 324C283.827 324 286.592 324 289.564 324C289.564 320.959 289.564 318.194 289.564 315.706C289.564 313.218 289.564 310.453 289.564 307.412C286.592 307.412 283.827 307.412 281.27 307.412C278.713 307.412 275.948 307.412 272.976 307.412C272.976 310.453 272.976 313.218 272.976 315.706C272.976 318.194 272.976 320.959 272.976 324ZM272.976 324C275.948 324 278.713 324 281.27 324C283.827 324 286.592 324 289.564 324C289.564 320.959 289.564 318.194 289.564 315.706C289.564 313.218 289.564 310.453 289.564 307.412C286.592 307.412 283.827 307.412 281.27 307.412C278.713 307.412 275.948 307.412 272.976 307.412C272.976 310.453 272.976 313.218 272.976 315.706C272.976 318.194 272.976 320.959 272.976 324ZM272.976 324C275.948 324 278.713 324 281.27 324C283.827 324 286.592 324 289.564 324C289.564 320.959 289.564 318.194 289.564 315.706C289.564 313.218 289.564 310.453 289.564 307.412C286.592 307.412 283.827 307.412 281.27 307.412C278.713 307.412 275.948 307.412 272.976 307.412C272.976 310.453 272.976 313.218 272.976 315.706C272.976 318.194 272.976 320.959 272.976 324ZM272.976 324C275.948 324 278.713 324 281.27 324C283.827 324 286.592 324 289.564 324C289.564 320.959 289.564 318.194 289.564 315.706C289.564 313.218 289.564 310.453 289.564 307.412C286.592 307.412 283.827 307.412 281.27 307.412C278.713 307.412 275.948 307.412 272.976 307.412C272.976 310.453 272.976 313.218 272.976 315.706C272.976 318.194 272.976 320.959 272.976 324ZM272.976 324C275.948 324 278.713 324 281.27 324C283.827 324 286.592 324 289.564 324C289.564 320.959 289.564 318.194 289.564 315.706C289.564 313.218 289.564 310.453 289.564 307.412C286.592 307.412 283.827 307.412 281.27 307.412C278.713 307.412 275.948 307.412 272.976 307.412C272.976 310.453 272.976 313.218 272.976 315.706C272.976 318.194 272.976 320.959 272.976 324ZM272.976 324C275.948 324 278.713 324 281.27 324C283.827 324 286.592 324 289.564 324C289.564 320.959 289.564 318.194 289.564 315.706C289.564 313.218 289.564 310.453 289.564 307.412C286.592 307.412 283.827 307.412 281.27 307.412C278.713 307.412 275.948 307.412 272.976 307.412C272.976 310.453 272.976 313.218 272.976 315.706C272.976 318.194 272.976 320.959 272.976 324ZM206.623 307.412C209.595 307.412 212.36 307.412 214.917 307.412C217.474 307.412 220.239 307.412 223.211 307.412C223.211 304.371 223.211 301.606 223.211 299.118C223.211 296.629 223.211 293.865 223.211 290.824C220.239 290.824 217.474 290.824 214.917 290.824C212.36 290.824 209.595 290.824 206.623 290.824C206.623 293.865 206.623 296.629 206.623 299.118C206.623 301.606 206.623 304.371 206.623 307.412ZM206.623 307.412C209.595 307.412 212.36 307.412 214.917 307.412C217.474 307.412 220.239 307.412 223.211 307.412C223.211 304.371 223.211 301.606 223.211 299.118C223.211 296.629 223.211 293.865 223.211 290.824C220.239 290.824 217.474 290.824 214.917 290.824C212.36 290.824 209.595 290.824 206.623 290.824C206.623 293.865 206.623 296.629 206.623 299.118C206.623 301.606 206.623 304.371 206.623 307.412ZM206.623 307.412C209.595 307.412 212.36 307.412 214.917 307.412C217.474 307.412 220.239 307.412 223.211 307.412C223.211 304.371 223.211 301.606 223.211 299.118C223.211 296.629 223.211 293.865 223.211 290.824C220.239 290.824 217.474 290.824 214.917 290.824C212.36 290.824 209.595 290.824 206.623 290.824C206.623 293.865 206.623 296.629 206.623 299.118C206.623 301.606 206.623 304.371 206.623 307.412ZM206.623 307.412C209.595 307.412 212.36 307.412 214.917 307.412C217.474 307.412 220.239 307.412 223.211 307.412C223.211 304.371 223.211 301.606 223.211 299.118C223.211 296.629 223.211 293.865 223.211 290.824C220.239 290.824 217.474 290.824 214.917 290.824C212.36 290.824 209.595 290.824 206.623 290.824C206.623 293.865 206.623 296.629 206.623 299.118C206.623 301.606 206.623 304.371 206.623 307.412ZM206.623 307.412C209.595 307.412 212.36 307.412 214.917 307.412C217.474 307.412 220.239 307.412 223.211 307.412C223.211 304.371 223.211 301.606 223.211 299.118C223.211 296.629 223.211 293.865 223.211 290.824C220.239 290.824 217.474 290.824 214.917 290.824C212.36 290.824 209.595 290.824 206.623 290.824C206.623 293.865 206.623 296.629 206.623 299.118C206.623 301.606 206.623 304.371 206.623 307.412ZM206.623 307.412C209.595 307.412 212.36 307.412 214.917 307.412C217.474 307.412 220.239 307.412 223.211 307.412C223.211 304.371 223.211 301.606 223.211 299.118C223.211 296.629 223.211 293.865 223.211 290.824C220.239 290.824 217.474 290.824 214.917 290.824C212.36 290.824 209.595 290.824 206.623 290.824C206.623 293.865 206.623 296.629 206.623 299.118C206.623 301.606 206.623 304.371 206.623 307.412ZM206.623 307.412C209.595 307.412 212.36 307.412 214.917 307.412C217.474 307.412 220.239 307.412 223.211 307.412C223.211 304.371 223.211 301.606 223.211 299.118C223.211 296.629 223.211 293.865 223.211 290.824C220.239 290.824 217.474 290.824 214.917 290.824C212.36 290.824 209.595 290.824 206.623 290.824C206.623 293.865 206.623 296.629 206.623 299.118C206.623 301.606 206.623 304.371 206.623 307.412ZM206.623 307.412C209.595 307.412 212.36 307.412 214.917 307.412C217.474 307.412 220.239 307.412 223.211 307.412C223.211 304.371 223.211 301.606 223.211 299.118C223.211 296.629 223.211 293.865 223.211 290.824C220.239 290.824 217.474 290.824 214.917 290.824C212.36 290.824 209.595 290.824 206.623 290.824C206.623 293.865 206.623 296.629 206.623 299.118C206.623 301.606 206.623 304.371 206.623 307.412ZM206.623 307.412C209.595 307.412 212.36 307.412 214.917 307.412C217.474 307.412 220.239 307.412 223.211 307.412C223.211 304.371 223.211 301.606 223.211 299.118C223.211 296.629 223.211 293.865 223.211 290.824C220.239 290.824 217.474 290.824 214.917 290.824C212.36 290.824 209.595 290.824 206.623 290.824C206.623 293.865 206.623 296.629 206.623 299.118C206.623 301.606 206.623 304.371 206.623 307.412ZM256.388 307.412C259.36 307.412 262.124 307.412 264.682 307.412C267.239 307.412 270.004 307.412 272.976 307.412C272.976 304.371 272.976 301.606 272.976 299.118C272.976 296.629 272.976 293.865 272.976 290.824C270.004 290.824 267.239 290.824 264.682 290.824C262.124 290.824 259.36 290.824 256.388 290.824C256.388 293.865 256.388 296.629 256.388 299.118C256.388 301.606 256.388 304.371 256.388 307.412ZM256.388 307.412C259.36 307.412 262.124 307.412 264.682 307.412C267.239 307.412 270.004 307.412 272.976 307.412C272.976 304.371 272.976 301.606 272.976 299.118C272.976 296.629 272.976 293.865 272.976 290.824C270.004 290.824 267.239 290.824 264.682 290.824C262.124 290.824 259.36 290.824 256.388 290.824C256.388 293.865 256.388 296.629 256.388 299.118C256.388 301.606 256.388 304.371 256.388 307.412ZM256.388 307.412C259.36 307.412 262.124 307.412 264.682 307.412C267.239 307.412 270.004 307.412 272.976 307.412C272.976 304.371 272.976 301.606 272.976 299.118C272.976 296.629 272.976 293.865 272.976 290.824C270.004 290.824 267.239 290.824 264.682 290.824C262.124 290.824 259.36 290.824 256.388 290.824C256.388 293.865 256.388 296.629 256.388 299.118C256.388 301.606 256.388 304.371 256.388 307.412ZM256.388 307.412C259.36 307.412 262.124 307.412 264.682 307.412C267.239 307.412 270.004 307.412 272.976 307.412C272.976 304.371 272.976 301.606 272.976 299.118C272.976 296.629 272.976 293.865 272.976 290.824C270.004 290.824 267.239 290.824 264.682 290.824C262.124 290.824 259.36 290.824 256.388 290.824C256.388 293.865 256.388 296.629 256.388 299.118C256.388 301.606 256.388 304.371 256.388 307.412ZM256.388 307.412C259.36 307.412 262.124 307.412 264.682 307.412C267.239 307.412 270.004 307.412 272.976 307.412C272.976 304.371 272.976 301.606 272.976 299.118C272.976 296.629 272.976 293.865 272.976 290.824C270.004 290.824 267.239 290.824 264.682 290.824C262.124 290.824 259.36 290.824 256.388 290.824C256.388 293.865 256.388 296.629 256.388 299.118C256.388 301.606 256.388 304.371 256.388 307.412ZM256.388 307.412C259.36 307.412 262.124 307.412 264.682 307.412C267.239 307.412 270.004 307.412 272.976 307.412C272.976 304.371 272.976 301.606 272.976 299.118C272.976 296.629 272.976 293.865 272.976 290.824C270.004 290.824 267.239 290.824 264.682 290.824C262.124 290.824 259.36 290.824 256.388 290.824C256.388 293.865 256.388 296.629 256.388 299.118C256.388 301.606 256.388 304.371 256.388 307.412ZM256.388 307.412C259.36 307.412 262.124 307.412 264.682 307.412C267.239 307.412 270.004 307.412 272.976 307.412C272.976 304.371 272.976 301.606 272.976 299.118C272.976 296.629 272.976 293.865 272.976 290.824C270.004 290.824 267.239 290.824 264.682 290.824C262.124 290.824 259.36 290.824 256.388 290.824C256.388 293.865 256.388 296.629 256.388 299.118C256.388 301.606 256.388 304.371 256.388 307.412ZM256.388 307.412C259.36 307.412 262.124 307.412 264.682 307.412C267.239 307.412 270.004 307.412 272.976 307.412C272.976 304.371 272.976 301.606 272.976 299.118C272.976 296.629 272.976 293.865 272.976 290.824C270.004 290.824 267.239 290.824 264.682 290.824C262.124 290.824 259.36 290.824 256.388 290.824C256.388 293.865 256.388 296.629 256.388 299.118C256.388 301.606 256.388 304.371 256.388 307.412ZM256.388 307.412C259.36 307.412 262.124 307.412 264.682 307.412C267.239 307.412 270.004 307.412 272.976 307.412C272.976 304.371 272.976 301.606 272.976 299.118C272.976 296.629 272.976 293.865 272.976 290.824C270.004 290.824 267.239 290.824 264.682 290.824C262.124 290.824 259.36 290.824 256.388 290.824C256.388 293.865 256.388 296.629 256.388 299.118C256.388 301.606 256.388 304.371 256.388 307.412ZM272.976 307.412C275.948 307.412 278.713 307.412 281.27 307.412C283.827 307.412 286.592 307.412 289.564 307.412C289.564 304.371 289.564 301.606 289.564 299.118C289.564 296.629 289.564 293.865 289.564 290.824C286.592 290.824 283.827 290.824 281.27 290.824C278.713 290.824 275.948 290.824 272.976 290.824C272.976 293.865 272.976 296.629 272.976 299.118C272.976 301.606 272.976 304.371 272.976 307.412ZM272.976 307.412C275.948 307.412 278.713 307.412 281.27 307.412C283.827 307.412 286.592 307.412 289.564 307.412C289.564 304.371 289.564 301.606 289.564 299.118C289.564 296.629 289.564 293.865 289.564 290.824C286.592 290.824 283.827 290.824 281.27 290.824C278.713 290.824 275.948 290.824 272.976 290.824C272.976 293.865 272.976 296.629 272.976 299.118C272.976 301.606 272.976 304.371 272.976 307.412ZM272.976 307.412C275.948 307.412 278.713 307.412 281.27 307.412C283.827 307.412 286.592 307.412 289.564 307.412C289.564 304.371 289.564 301.606 289.564 299.118C289.564 296.629 289.564 293.865 289.564 290.824C286.592 290.824 283.827 290.824 281.27 290.824C278.713 290.824 275.948 290.824 272.976 290.824C272.976 293.865 272.976 296.629 272.976 299.118C272.976 301.606 272.976 304.371 272.976 307.412ZM272.976 307.412C275.948 307.412 278.713 307.412 281.27 307.412C283.827 307.412 286.592 307.412 289.564 307.412C289.564 304.371 289.564 301.606 289.564 299.118C289.564 296.629 289.564 293.865 289.564 290.824C286.592 290.824 283.827 290.824 281.27 290.824C278.713 290.824 275.948 290.824 272.976 290.824C272.976 293.865 272.976 296.629 272.976 299.118C272.976 301.606 272.976 304.371 272.976 307.412ZM272.976 307.412C275.948 307.412 278.713 307.412 281.27 307.412C283.827 307.412 286.592 307.412 289.564 307.412C289.564 304.371 289.564 301.606 289.564 299.118C289.564 296.629 289.564 293.865 289.564 290.824C286.592 290.824 283.827 290.824 281.27 290.824C278.713 290.824 275.948 290.824 272.976 290.824C272.976 293.865 272.976 296.629 272.976 299.118C272.976 301.606 272.976 304.371 272.976 307.412ZM272.976 307.412C275.948 307.412 278.713 307.412 281.27 307.412C283.827 307.412 286.592 307.412 289.564 307.412C289.564 304.371 289.564 301.606 289.564 299.118C289.564 296.629 289.564 293.865 289.564 290.824C286.592 290.824 283.827 290.824 281.27 290.824C278.713 290.824 275.948 290.824 272.976 290.824C272.976 293.865 272.976 296.629 272.976 299.118C272.976 301.606 272.976 304.371 272.976 307.412ZM272.976 307.412C275.948 307.412 278.713 307.412 281.27 307.412C283.827 307.412 286.592 307.412 289.564 307.412C289.564 304.371 289.564 301.606 289.564 299.118C289.564 296.629 289.564 293.865 289.564 290.824C286.592 290.824 283.827 290.824 281.27 290.824C278.713 290.824 275.948 290.824 272.976 290.824C272.976 293.865 272.976 296.629 272.976 299.118C272.976 301.606 272.976 304.371 272.976 307.412ZM272.976 307.412C275.948 307.412 278.713 307.412 281.27 307.412C283.827 307.412 286.592 307.412 289.564 307.412C289.564 304.371 289.564 301.606 289.564 299.118C289.564 296.629 289.564 293.865 289.564 290.824C286.592 290.824 283.827 290.824 281.27 290.824C278.713 290.824 275.948 290.824 272.976 290.824C272.976 293.865 272.976 296.629 272.976 299.118C272.976 301.606 272.976 304.371 272.976 307.412ZM272.976 307.412C275.948 307.412 278.713 307.412 281.27 307.412C283.827 307.412 286.592 307.412 289.564 307.412C289.564 304.371 289.564 301.606 289.564 299.118C289.564 296.629 289.564 293.865 289.564 290.824C286.592 290.824 283.827 290.824 281.27 290.824C278.713 290.824 275.948 290.824 272.976 290.824C272.976 293.865 272.976 296.629 272.976 299.118C272.976 301.606 272.976 304.371 272.976 307.412ZM206.623 290.824C209.595 290.824 212.36 290.824 214.917 290.824C217.474 290.824 220.239 290.824 223.211 290.824C223.211 287.782 223.211 285.018 223.211 282.529C223.211 280.041 223.211 277.276 223.211 274.235C220.239 274.235 217.474 274.235 214.917 274.235C212.36 274.235 209.595 274.235 206.623 274.235C206.623 277.276 206.623 280.041 206.623 282.529C206.623 285.018 206.623 287.782 206.623 290.824ZM206.623 290.824C209.595 290.824 212.36 290.824 214.917 290.824C217.474 290.824 220.239 290.824 223.211 290.824C223.211 287.782 223.211 285.018 223.211 282.529C223.211 280.041 223.211 277.276 223.211 274.235C220.239 274.235 217.474 274.235 214.917 274.235C212.36 274.235 209.595 274.235 206.623 274.235C206.623 277.276 206.623 280.041 206.623 282.529C206.623 285.018 206.623 287.782 206.623 290.824ZM206.623 290.824C209.595 290.824 212.36 290.824 214.917 290.824C217.474 290.824 220.239 290.824 223.211 290.824C223.211 287.782 223.211 285.018 223.211 282.529C223.211 280.041 223.211 277.276 223.211 274.235C220.239 274.235 217.474 274.235 214.917 274.235C212.36 274.235 209.595 274.235 206.623 274.235C206.623 277.276 206.623 280.041 206.623 282.529C206.623 285.018 206.623 287.782 206.623 290.824ZM206.623 290.824C209.595 290.824 212.36 290.824 214.917 290.824C217.474 290.824 220.239 290.824 223.211 290.824C223.211 287.782 223.211 285.018 223.211 282.529C223.211 280.041 223.211 277.276 223.211 274.235C220.239 274.235 217.474 274.235 214.917 274.235C212.36 274.235 209.595 274.235 206.623 274.235C206.623 277.276 206.623 280.041 206.623 282.529C206.623 285.018 206.623 287.782 206.623 290.824ZM206.623 290.824C209.595 290.824 212.36 290.824 214.917 290.824C217.474 290.824 220.239 290.824 223.211 290.824C223.211 287.782 223.211 285.018 223.211 282.529C223.211 280.041 223.211 277.276 223.211 274.235C220.239 274.235 217.474 274.235 214.917 274.235C212.36 274.235 209.595 274.235 206.623 274.235C206.623 277.276 206.623 280.041 206.623 282.529C206.623 285.018 206.623 287.782 206.623 290.824ZM206.623 290.824C209.595 290.824 212.36 290.824 214.917 290.824C217.474 290.824 220.239 290.824 223.211 290.824C223.211 287.782 223.211 285.018 223.211 282.529C223.211 280.041 223.211 277.276 223.211 274.235C220.239 274.235 217.474 274.235 214.917 274.235C212.36 274.235 209.595 274.235 206.623 274.235C206.623 277.276 206.623 280.041 206.623 282.529C206.623 285.018 206.623 287.782 206.623 290.824ZM206.623 290.824C209.595 290.824 212.36 290.824 214.917 290.824C217.474 290.824 220.239 290.824 223.211 290.824C223.211 287.782 223.211 285.018 223.211 282.529C223.211 280.041 223.211 277.276 223.211 274.235C220.239 274.235 217.474 274.235 214.917 274.235C212.36 274.235 209.595 274.235 206.623 274.235C206.623 277.276 206.623 280.041 206.623 282.529C206.623 285.018 206.623 287.782 206.623 290.824ZM206.623 290.824C209.595 290.824 212.36 290.824 214.917 290.824C217.474 290.824 220.239 290.824 223.211 290.824C223.211 287.782 223.211 285.018 223.211 282.529C223.211 280.041 223.211 277.276 223.211 274.235C220.239 274.235 217.474 274.235 214.917 274.235C212.36 274.235 209.595 274.235 206.623 274.235C206.623 277.276 206.623 280.041 206.623 282.529C206.623 285.018 206.623 287.782 206.623 290.824ZM206.623 290.824C209.595 290.824 212.36 290.824 214.917 290.824C217.474 290.824 220.239 290.824 223.211 290.824C223.211 287.782 223.211 285.018 223.211 282.529C223.211 280.041 223.211 277.276 223.211 274.235C220.239 274.235 217.474 274.235 214.917 274.235C212.36 274.235 209.595 274.235 206.623 274.235C206.623 277.276 206.623 280.041 206.623 282.529C206.623 285.018 206.623 287.782 206.623 290.824ZM272.976 290.824C275.948 290.824 278.713 290.824 281.27 290.824C283.827 290.824 286.592 290.824 289.564 290.824C289.564 287.782 289.564 285.018 289.564 282.529C289.564 280.041 289.564 277.276 289.564 274.235C286.592 274.235 283.827 274.235 281.27 274.235C278.713 274.235 275.948 274.235 272.976 274.235C272.976 277.276 272.976 280.041 272.976 282.529C272.976 285.018 272.976 287.782 272.976 290.824ZM272.976 290.824C275.948 290.824 278.713 290.824 281.27 290.824C283.827 290.824 286.592 290.824 289.564 290.824C289.564 287.782 289.564 285.018 289.564 282.529C289.564 280.041 289.564 277.276 289.564 274.235C286.592 274.235 283.827 274.235 281.27 274.235C278.713 274.235 275.948 274.235 272.976 274.235C272.976 277.276 272.976 280.041 272.976 282.529C272.976 285.018 272.976 287.782 272.976 290.824ZM272.976 290.824C275.948 290.824 278.713 290.824 281.27 290.824C283.827 290.824 286.592 290.824 289.564 290.824C289.564 287.782 289.564 285.018 289.564 282.529C289.564 280.041 289.564 277.276 289.564 274.235C286.592 274.235 283.827 274.235 281.27 274.235C278.713 274.235 275.948 274.235 272.976 274.235C272.976 277.276 272.976 280.041 272.976 282.529C272.976 285.018 272.976 287.782 272.976 290.824ZM272.976 290.824C275.948 290.824 278.713 290.824 281.27 290.824C283.827 290.824 286.592 290.824 289.564 290.824C289.564 287.782 289.564 285.018 289.564 282.529C289.564 280.041 289.564 277.276 289.564 274.235C286.592 274.235 283.827 274.235 281.27 274.235C278.713 274.235 275.948 274.235 272.976 274.235C272.976 277.276 272.976 280.041 272.976 282.529C272.976 285.018 272.976 287.782 272.976 290.824ZM272.976 290.824C275.948 290.824 278.713 290.824 281.27 290.824C283.827 290.824 286.592 290.824 289.564 290.824C289.564 287.782 289.564 285.018 289.564 282.529C289.564 280.041 289.564 277.276 289.564 274.235C286.592 274.235 283.827 274.235 281.27 274.235C278.713 274.235 275.948 274.235 272.976 274.235C272.976 277.276 272.976 280.041 272.976 282.529C272.976 285.018 272.976 287.782 272.976 290.824ZM272.976 290.824C275.948 290.824 278.713 290.824 281.27 290.824C283.827 290.824 286.592 290.824 289.564 290.824C289.564 287.782 289.564 285.018 289.564 282.529C289.564 280.041 289.564 277.276 289.564 274.235C286.592 274.235 283.827 274.235 281.27 274.235C278.713 274.235 275.948 274.235 272.976 274.235C272.976 277.276 272.976 280.041 272.976 282.529C272.976 285.018 272.976 287.782 272.976 290.824ZM272.976 290.824C275.948 290.824 278.713 290.824 281.27 290.824C283.827 290.824 286.592 290.824 289.564 290.824C289.564 287.782 289.564 285.018 289.564 282.529C289.564 280.041 289.564 277.276 289.564 274.235C286.592 274.235 283.827 274.235 281.27 274.235C278.713 274.235 275.948 274.235 272.976 274.235C272.976 277.276 272.976 280.041 272.976 282.529C272.976 285.018 272.976 287.782 272.976 290.824ZM272.976 290.824C275.948 290.824 278.713 290.824 281.27 290.824C283.827 290.824 286.592 290.824 289.564 290.824C289.564 287.782 289.564 285.018 289.564 282.529C289.564 280.041 289.564 277.276 289.564 274.235C286.592 274.235 283.827 274.235 281.27 274.235C278.713 274.235 275.948 274.235 272.976 274.235C272.976 277.276 272.976 280.041 272.976 282.529C272.976 285.018 272.976 287.782 272.976 290.824ZM272.976 290.824C275.948 290.824 278.713 290.824 281.27 290.824C283.827 290.824 286.592 290.824 289.564 290.824C289.564 287.782 289.564 285.018 289.564 282.529C289.564 280.041 289.564 277.276 289.564 274.235C286.592 274.235 283.827 274.235 281.27 274.235C278.713 274.235 275.948 274.235 272.976 274.235C272.976 277.276 272.976 280.041 272.976 282.529C272.976 285.018 272.976 287.782 272.976 290.824ZM206.623 274.235C209.595 274.235 212.36 274.235 214.917 274.235C217.474 274.235 220.239 274.235 223.211 274.235C223.211 271.194 223.211 268.429 223.211 265.941C223.211 263.453 223.211 260.688 223.211 257.647C220.239 257.647 217.474 257.647 214.917 257.647C212.36 257.647 209.595 257.647 206.623 257.647C206.623 260.688 206.623 263.453 206.623 265.941C206.623 268.429 206.623 271.194 206.623 274.235ZM206.623 274.235C209.595 274.235 212.36 274.235 214.917 274.235C217.474 274.235 220.239 274.235 223.211 274.235C223.211 271.194 223.211 268.429 223.211 265.941C223.211 263.453 223.211 260.688 223.211 257.647C220.239 257.647 217.474 257.647 214.917 257.647C212.36 257.647 209.595 257.647 206.623 257.647C206.623 260.688 206.623 263.453 206.623 265.941C206.623 268.429 206.623 271.194 206.623 274.235ZM206.623 274.235C209.595 274.235 212.36 274.235 214.917 274.235C217.474 274.235 220.239 274.235 223.211 274.235C223.211 271.194 223.211 268.429 223.211 265.941C223.211 263.453 223.211 260.688 223.211 257.647C220.239 257.647 217.474 257.647 214.917 257.647C212.36 257.647 209.595 257.647 206.623 257.647C206.623 260.688 206.623 263.453 206.623 265.941C206.623 268.429 206.623 271.194 206.623 274.235ZM206.623 274.235C209.595 274.235 212.36 274.235 214.917 274.235C217.474 274.235 220.239 274.235 223.211 274.235C223.211 271.194 223.211 268.429 223.211 265.941C223.211 263.453 223.211 260.688 223.211 257.647C220.239 257.647 217.474 257.647 214.917 257.647C212.36 257.647 209.595 257.647 206.623 257.647C206.623 260.688 206.623 263.453 206.623 265.941C206.623 268.429 206.623 271.194 206.623 274.235ZM206.623 274.235C209.595 274.235 212.36 274.235 214.917 274.235C217.474 274.235 220.239 274.235 223.211 274.235C223.211 271.194 223.211 268.429 223.211 265.941C223.211 263.453 223.211 260.688 223.211 257.647C220.239 257.647 217.474 257.647 214.917 257.647C212.36 257.647 209.595 257.647 206.623 257.647C206.623 260.688 206.623 263.453 206.623 265.941C206.623 268.429 206.623 271.194 206.623 274.235ZM206.623 274.235C209.595 274.235 212.36 274.235 214.917 274.235C217.474 274.235 220.239 274.235 223.211 274.235C223.211 271.194 223.211 268.429 223.211 265.941C223.211 263.453 223.211 260.688 223.211 257.647C220.239 257.647 217.474 257.647 214.917 257.647C212.36 257.647 209.595 257.647 206.623 257.647C206.623 260.688 206.623 263.453 206.623 265.941C206.623 268.429 206.623 271.194 206.623 274.235ZM206.623 274.235C209.595 274.235 212.36 274.235 214.917 274.235C217.474 274.235 220.239 274.235 223.211 274.235C223.211 271.194 223.211 268.429 223.211 265.941C223.211 263.453 223.211 260.688 223.211 257.647C220.239 257.647 217.474 257.647 214.917 257.647C212.36 257.647 209.595 257.647 206.623 257.647C206.623 260.688 206.623 263.453 206.623 265.941C206.623 268.429 206.623 271.194 206.623 274.235ZM206.623 274.235C209.595 274.235 212.36 274.235 214.917 274.235C217.474 274.235 220.239 274.235 223.211 274.235C223.211 271.194 223.211 268.429 223.211 265.941C223.211 263.453 223.211 260.688 223.211 257.647C220.239 257.647 217.474 257.647 214.917 257.647C212.36 257.647 209.595 257.647 206.623 257.647C206.623 260.688 206.623 263.453 206.623 265.941C206.623 268.429 206.623 271.194 206.623 274.235ZM206.623 274.235C209.595 274.235 212.36 274.235 214.917 274.235C217.474 274.235 220.239 274.235 223.211 274.235C223.211 271.194 223.211 268.429 223.211 265.941C223.211 263.453 223.211 260.688 223.211 257.647C220.239 257.647 217.474 257.647 214.917 257.647C212.36 257.647 209.595 257.647 206.623 257.647C206.623 260.688 206.623 263.453 206.623 265.941C206.623 268.429 206.623 271.194 206.623 274.235ZM272.976 274.235C275.948 274.235 278.713 274.235 281.27 274.235C283.827 274.235 286.592 274.235 289.564 274.235C289.564 271.194 289.564 268.429 289.564 265.941C289.564 263.453 289.564 260.688 289.564 257.647C286.592 257.647 283.827 257.647 281.27 257.647C278.713 257.647 275.948 257.647 272.976 257.647C272.976 260.688 272.976 263.453 272.976 265.941C272.976 268.429 272.976 271.194 272.976 274.235ZM272.976 274.235C275.948 274.235 278.713 274.235 281.27 274.235C283.827 274.235 286.592 274.235 289.564 274.235C289.564 271.194 289.564 268.429 289.564 265.941C289.564 263.453 289.564 260.688 289.564 257.647C286.592 257.647 283.827 257.647 281.27 257.647C278.713 257.647 275.948 257.647 272.976 257.647C272.976 260.688 272.976 263.453 272.976 265.941C272.976 268.429 272.976 271.194 272.976 274.235ZM272.976 274.235C275.948 274.235 278.713 274.235 281.27 274.235C283.827 274.235 286.592 274.235 289.564 274.235C289.564 271.194 289.564 268.429 289.564 265.941C289.564 263.453 289.564 260.688 289.564 257.647C286.592 257.647 283.827 257.647 281.27 257.647C278.713 257.647 275.948 257.647 272.976 257.647C272.976 260.688 272.976 263.453 272.976 265.941C272.976 268.429 272.976 271.194 272.976 274.235ZM272.976 274.235C275.948 274.235 278.713 274.235 281.27 274.235C283.827 274.235 286.592 274.235 289.564 274.235C289.564 271.194 289.564 268.429 289.564 265.941C289.564 263.453 289.564 260.688 289.564 257.647C286.592 257.647 283.827 257.647 281.27 257.647C278.713 257.647 275.948 257.647 272.976 257.647C272.976 260.688 272.976 263.453 272.976 265.941C272.976 268.429 272.976 271.194 272.976 274.235ZM272.976 274.235C275.948 274.235 278.713 274.235 281.27 274.235C283.827 274.235 286.592 274.235 289.564 274.235C289.564 271.194 289.564 268.429 289.564 265.941C289.564 263.453 289.564 260.688 289.564 257.647C286.592 257.647 283.827 257.647 281.27 257.647C278.713 257.647 275.948 257.647 272.976 257.647C272.976 260.688 272.976 263.453 272.976 265.941C272.976 268.429 272.976 271.194 272.976 274.235ZM272.976 274.235C275.948 274.235 278.713 274.235 281.27 274.235C283.827 274.235 286.592 274.235 289.564 274.235C289.564 271.194 289.564 268.429 289.564 265.941C289.564 263.453 289.564 260.688 289.564 257.647C286.592 257.647 283.827 257.647 281.27 257.647C278.713 257.647 275.948 257.647 272.976 257.647C272.976 260.688 272.976 263.453 272.976 265.941C272.976 268.429 272.976 271.194 272.976 274.235ZM272.976 274.235C275.948 274.235 278.713 274.235 281.27 274.235C283.827 274.235 286.592 274.235 289.564 274.235C289.564 271.194 289.564 268.429 289.564 265.941C289.564 263.453 289.564 260.688 289.564 257.647C286.592 257.647 283.827 257.647 281.27 257.647C278.713 257.647 275.948 257.647 272.976 257.647C272.976 260.688 272.976 263.453 272.976 265.941C272.976 268.429 272.976 271.194 272.976 274.235ZM272.976 274.235C275.948 274.235 278.713 274.235 281.27 274.235C283.827 274.235 286.592 274.235 289.564 274.235C289.564 271.194 289.564 268.429 289.564 265.941C289.564 263.453 289.564 260.688 289.564 257.647C286.592 257.647 283.827 257.647 281.27 257.647C278.713 257.647 275.948 257.647 272.976 257.647C272.976 260.688 272.976 263.453 272.976 265.941C272.976 268.429 272.976 271.194 272.976 274.235ZM272.976 274.235C275.948 274.235 278.713 274.235 281.27 274.235C283.827 274.235 286.592 274.235 289.564 274.235C289.564 271.194 289.564 268.429 289.564 265.941C289.564 263.453 289.564 260.688 289.564 257.647C286.592 257.647 283.827 257.647 281.27 257.647C278.713 257.647 275.948 257.647 272.976 257.647C272.976 260.688 272.976 263.453 272.976 265.941C272.976 268.429 272.976 271.194 272.976 274.235ZM206.623 257.647C209.595 257.647 212.36 257.647 214.917 257.647C217.474 257.647 220.239 257.647 223.211 257.647C223.211 254.606 223.211 251.841 223.211 249.353C223.211 246.865 223.211 244.1 223.211 241.059C220.239 241.059 217.474 241.059 214.917 241.059C212.36 241.059 209.595 241.059 206.623 241.059C206.623 244.1 206.623 246.865 206.623 249.353C206.623 251.841 206.623 254.606 206.623 257.647ZM206.623 257.647C209.595 257.647 212.36 257.647 214.917 257.647C217.474 257.647 220.239 257.647 223.211 257.647C223.211 254.606 223.211 251.841 223.211 249.353C223.211 246.865 223.211 244.1 223.211 241.059C220.239 241.059 217.474 241.059 214.917 241.059C212.36 241.059 209.595 241.059 206.623 241.059C206.623 244.1 206.623 246.865 206.623 249.353C206.623 251.841 206.623 254.606 206.623 257.647ZM206.623 257.647C209.595 257.647 212.36 257.647 214.917 257.647C217.474 257.647 220.239 257.647 223.211 257.647C223.211 254.606 223.211 251.841 223.211 249.353C223.211 246.865 223.211 244.1 223.211 241.059C220.239 241.059 217.474 241.059 214.917 241.059C212.36 241.059 209.595 241.059 206.623 241.059C206.623 244.1 206.623 246.865 206.623 249.353C206.623 251.841 206.623 254.606 206.623 257.647ZM206.623 257.647C209.595 257.647 212.36 257.647 214.917 257.647C217.474 257.647 220.239 257.647 223.211 257.647C223.211 254.606 223.211 251.841 223.211 249.353C223.211 246.865 223.211 244.1 223.211 241.059C220.239 241.059 217.474 241.059 214.917 241.059C212.36 241.059 209.595 241.059 206.623 241.059C206.623 244.1 206.623 246.865 206.623 249.353C206.623 251.841 206.623 254.606 206.623 257.647ZM206.623 257.647C209.595 257.647 212.36 257.647 214.917 257.647C217.474 257.647 220.239 257.647 223.211 257.647C223.211 254.606 223.211 251.841 223.211 249.353C223.211 246.865 223.211 244.1 223.211 241.059C220.239 241.059 217.474 241.059 214.917 241.059C212.36 241.059 209.595 241.059 206.623 241.059C206.623 244.1 206.623 246.865 206.623 249.353C206.623 251.841 206.623 254.606 206.623 257.647ZM206.623 257.647C209.595 257.647 212.36 257.647 214.917 257.647C217.474 257.647 220.239 257.647 223.211 257.647C223.211 254.606 223.211 251.841 223.211 249.353C223.211 246.865 223.211 244.1 223.211 241.059C220.239 241.059 217.474 241.059 214.917 241.059C212.36 241.059 209.595 241.059 206.623 241.059C206.623 244.1 206.623 246.865 206.623 249.353C206.623 251.841 206.623 254.606 206.623 257.647ZM206.623 257.647C209.595 257.647 212.36 257.647 214.917 257.647C217.474 257.647 220.239 257.647 223.211 257.647C223.211 254.606 223.211 251.841 223.211 249.353C223.211 246.865 223.211 244.1 223.211 241.059C220.239 241.059 217.474 241.059 214.917 241.059C212.36 241.059 209.595 241.059 206.623 241.059C206.623 244.1 206.623 246.865 206.623 249.353C206.623 251.841 206.623 254.606 206.623 257.647ZM206.623 257.647C209.595 257.647 212.36 257.647 214.917 257.647C217.474 257.647 220.239 257.647 223.211 257.647C223.211 254.606 223.211 251.841 223.211 249.353C223.211 246.865 223.211 244.1 223.211 241.059C220.239 241.059 217.474 241.059 214.917 241.059C212.36 241.059 209.595 241.059 206.623 241.059C206.623 244.1 206.623 246.865 206.623 249.353C206.623 251.841 206.623 254.606 206.623 257.647ZM206.623 257.647C209.595 257.647 212.36 257.647 214.917 257.647C217.474 257.647 220.239 257.647 223.211 257.647C223.211 254.606 223.211 251.841 223.211 249.353C223.211 246.865 223.211 244.1 223.211 241.059C220.239 241.059 217.474 241.059 214.917 241.059C212.36 241.059 209.595 241.059 206.623 241.059C206.623 244.1 206.623 246.865 206.623 249.353C206.623 251.841 206.623 254.606 206.623 257.647ZM272.976 257.647C275.948 257.647 278.713 257.647 281.27 257.647C283.827 257.647 286.592 257.647 289.564 257.647C289.564 254.606 289.564 251.841 289.564 249.353C289.564 246.865 289.564 244.1 289.564 241.059C286.592 241.059 283.827 241.059 281.27 241.059C278.713 241.059 275.948 241.059 272.976 241.059C272.976 244.1 272.976 246.865 272.976 249.353C272.976 251.841 272.976 254.606 272.976 257.647ZM272.976 257.647C275.948 257.647 278.713 257.647 281.27 257.647C283.827 257.647 286.592 257.647 289.564 257.647C289.564 254.606 289.564 251.841 289.564 249.353C289.564 246.865 289.564 244.1 289.564 241.059C286.592 241.059 283.827 241.059 281.27 241.059C278.713 241.059 275.948 241.059 272.976 241.059C272.976 244.1 272.976 246.865 272.976 249.353C272.976 251.841 272.976 254.606 272.976 257.647ZM272.976 257.647C275.948 257.647 278.713 257.647 281.27 257.647C283.827 257.647 286.592 257.647 289.564 257.647C289.564 254.606 289.564 251.841 289.564 249.353C289.564 246.865 289.564 244.1 289.564 241.059C286.592 241.059 283.827 241.059 281.27 241.059C278.713 241.059 275.948 241.059 272.976 241.059C272.976 244.1 272.976 246.865 272.976 249.353C272.976 251.841 272.976 254.606 272.976 257.647ZM272.976 257.647C275.948 257.647 278.713 257.647 281.27 257.647C283.827 257.647 286.592 257.647 289.564 257.647C289.564 254.606 289.564 251.841 289.564 249.353C289.564 246.865 289.564 244.1 289.564 241.059C286.592 241.059 283.827 241.059 281.27 241.059C278.713 241.059 275.948 241.059 272.976 241.059C272.976 244.1 272.976 246.865 272.976 249.353C272.976 251.841 272.976 254.606 272.976 257.647ZM272.976 257.647C275.948 257.647 278.713 257.647 281.27 257.647C283.827 257.647 286.592 257.647 289.564 257.647C289.564 254.606 289.564 251.841 289.564 249.353C289.564 246.865 289.564 244.1 289.564 241.059C286.592 241.059 283.827 241.059 281.27 241.059C278.713 241.059 275.948 241.059 272.976 241.059C272.976 244.1 272.976 246.865 272.976 249.353C272.976 251.841 272.976 254.606 272.976 257.647ZM272.976 257.647C275.948 257.647 278.713 257.647 281.27 257.647C283.827 257.647 286.592 257.647 289.564 257.647C289.564 254.606 289.564 251.841 289.564 249.353C289.564 246.865 289.564 244.1 289.564 241.059C286.592 241.059 283.827 241.059 281.27 241.059C278.713 241.059 275.948 241.059 272.976 241.059C272.976 244.1 272.976 246.865 272.976 249.353C272.976 251.841 272.976 254.606 272.976 257.647ZM272.976 257.647C275.948 257.647 278.713 257.647 281.27 257.647C283.827 257.647 286.592 257.647 289.564 257.647C289.564 254.606 289.564 251.841 289.564 249.353C289.564 246.865 289.564 244.1 289.564 241.059C286.592 241.059 283.827 241.059 281.27 241.059C278.713 241.059 275.948 241.059 272.976 241.059C272.976 244.1 272.976 246.865 272.976 249.353C272.976 251.841 272.976 254.606 272.976 257.647ZM272.976 257.647C275.948 257.647 278.713 257.647 281.27 257.647C283.827 257.647 286.592 257.647 289.564 257.647C289.564 254.606 289.564 251.841 289.564 249.353C289.564 246.865 289.564 244.1 289.564 241.059C286.592 241.059 283.827 241.059 281.27 241.059C278.713 241.059 275.948 241.059 272.976 241.059C272.976 244.1 272.976 246.865 272.976 249.353C272.976 251.841 272.976 254.606 272.976 257.647ZM272.976 257.647C275.948 257.647 278.713 257.647 281.27 257.647C283.827 257.647 286.592 257.647 289.564 257.647C289.564 254.606 289.564 251.841 289.564 249.353C289.564 246.865 289.564 244.1 289.564 241.059C286.592 241.059 283.827 241.059 281.27 241.059C278.713 241.059 275.948 241.059 272.976 241.059C272.976 244.1 272.976 246.865 272.976 249.353C272.976 251.841 272.976 254.606 272.976 257.647ZM206.623 241.059C209.595 241.059 212.36 241.059 214.917 241.059C217.474 241.059 220.239 241.059 223.211 241.059C223.211 238.018 223.211 235.253 223.211 232.765C223.211 230.276 223.211 227.512 223.211 224.471C220.239 224.471 217.474 224.471 214.917 224.471C212.36 224.471 209.595 224.471 206.623 224.471C206.623 227.512 206.623 230.276 206.623 232.765C206.623 235.253 206.623 238.018 206.623 241.059ZM206.623 241.059C209.595 241.059 212.36 241.059 214.917 241.059C217.474 241.059 220.239 241.059 223.211 241.059C223.211 238.018 223.211 235.253 223.211 232.765C223.211 230.276 223.211 227.512 223.211 224.471C220.239 224.471 217.474 224.471 214.917 224.471C212.36 224.471 209.595 224.471 206.623 224.471C206.623 227.512 206.623 230.276 206.623 232.765C206.623 235.253 206.623 238.018 206.623 241.059ZM206.623 241.059C209.595 241.059 212.36 241.059 214.917 241.059C217.474 241.059 220.239 241.059 223.211 241.059C223.211 238.018 223.211 235.253 223.211 232.765C223.211 230.276 223.211 227.512 223.211 224.471C220.239 224.471 217.474 224.471 214.917 224.471C212.36 224.471 209.595 224.471 206.623 224.471C206.623 227.512 206.623 230.276 206.623 232.765C206.623 235.253 206.623 238.018 206.623 241.059ZM206.623 241.059C209.595 241.059 212.36 241.059 214.917 241.059C217.474 241.059 220.239 241.059 223.211 241.059C223.211 238.018 223.211 235.253 223.211 232.765C223.211 230.276 223.211 227.512 223.211 224.471C220.239 224.471 217.474 224.471 214.917 224.471C212.36 224.471 209.595 224.471 206.623 224.471C206.623 227.512 206.623 230.276 206.623 232.765C206.623 235.253 206.623 238.018 206.623 241.059ZM206.623 241.059C209.595 241.059 212.36 241.059 214.917 241.059C217.474 241.059 220.239 241.059 223.211 241.059C223.211 238.018 223.211 235.253 223.211 232.765C223.211 230.276 223.211 227.512 223.211 224.471C220.239 224.471 217.474 224.471 214.917 224.471C212.36 224.471 209.595 224.471 206.623 224.471C206.623 227.512 206.623 230.276 206.623 232.765C206.623 235.253 206.623 238.018 206.623 241.059ZM206.623 241.059C209.595 241.059 212.36 241.059 214.917 241.059C217.474 241.059 220.239 241.059 223.211 241.059C223.211 238.018 223.211 235.253 223.211 232.765C223.211 230.276 223.211 227.512 223.211 224.471C220.239 224.471 217.474 224.471 214.917 224.471C212.36 224.471 209.595 224.471 206.623 224.471C206.623 227.512 206.623 230.276 206.623 232.765C206.623 235.253 206.623 238.018 206.623 241.059ZM206.623 241.059C209.595 241.059 212.36 241.059 214.917 241.059C217.474 241.059 220.239 241.059 223.211 241.059C223.211 238.018 223.211 235.253 223.211 232.765C223.211 230.276 223.211 227.512 223.211 224.471C220.239 224.471 217.474 224.471 214.917 224.471C212.36 224.471 209.595 224.471 206.623 224.471C206.623 227.512 206.623 230.276 206.623 232.765C206.623 235.253 206.623 238.018 206.623 241.059ZM206.623 241.059C209.595 241.059 212.36 241.059 214.917 241.059C217.474 241.059 220.239 241.059 223.211 241.059C223.211 238.018 223.211 235.253 223.211 232.765C223.211 230.276 223.211 227.512 223.211 224.471C220.239 224.471 217.474 224.471 214.917 224.471C212.36 224.471 209.595 224.471 206.623 224.471C206.623 227.512 206.623 230.276 206.623 232.765C206.623 235.253 206.623 238.018 206.623 241.059ZM206.623 241.059C209.595 241.059 212.36 241.059 214.917 241.059C217.474 241.059 220.239 241.059 223.211 241.059C223.211 238.018 223.211 235.253 223.211 232.765C223.211 230.276 223.211 227.512 223.211 224.471C220.239 224.471 217.474 224.471 214.917 224.471C212.36 224.471 209.595 224.471 206.623 224.471C206.623 227.512 206.623 230.276 206.623 232.765C206.623 235.253 206.623 238.018 206.623 241.059ZM272.976 241.059C275.948 241.059 278.713 241.059 281.27 241.059C283.827 241.059 286.592 241.059 289.564 241.059C289.564 238.018 289.564 235.253 289.564 232.765C289.564 230.276 289.564 227.512 289.564 224.471C286.592 224.471 283.827 224.471 281.27 224.471C278.713 224.471 275.948 224.471 272.976 224.471C272.976 227.512 272.976 230.276 272.976 232.765C272.976 235.253 272.976 238.018 272.976 241.059ZM272.976 241.059C275.948 241.059 278.713 241.059 281.27 241.059C283.827 241.059 286.592 241.059 289.564 241.059C289.564 238.018 289.564 235.253 289.564 232.765C289.564 230.276 289.564 227.512 289.564 224.471C286.592 224.471 283.827 224.471 281.27 224.471C278.713 224.471 275.948 224.471 272.976 224.471C272.976 227.512 272.976 230.276 272.976 232.765C272.976 235.253 272.976 238.018 272.976 241.059ZM272.976 241.059C275.948 241.059 278.713 241.059 281.27 241.059C283.827 241.059 286.592 241.059 289.564 241.059C289.564 238.018 289.564 235.253 289.564 232.765C289.564 230.276 289.564 227.512 289.564 224.471C286.592 224.471 283.827 224.471 281.27 224.471C278.713 224.471 275.948 224.471 272.976 224.471C272.976 227.512 272.976 230.276 272.976 232.765C272.976 235.253 272.976 238.018 272.976 241.059ZM272.976 241.059C275.948 241.059 278.713 241.059 281.27 241.059C283.827 241.059 286.592 241.059 289.564 241.059C289.564 238.018 289.564 235.253 289.564 232.765C289.564 230.276 289.564 227.512 289.564 224.471C286.592 224.471 283.827 224.471 281.27 224.471C278.713 224.471 275.948 224.471 272.976 224.471C272.976 227.512 272.976 230.276 272.976 232.765C272.976 235.253 272.976 238.018 272.976 241.059ZM272.976 241.059C275.948 241.059 278.713 241.059 281.27 241.059C283.827 241.059 286.592 241.059 289.564 241.059C289.564 238.018 289.564 235.253 289.564 232.765C289.564 230.276 289.564 227.512 289.564 224.471C286.592 224.471 283.827 224.471 281.27 224.471C278.713 224.471 275.948 224.471 272.976 224.471C272.976 227.512 272.976 230.276 272.976 232.765C272.976 235.253 272.976 238.018 272.976 241.059ZM272.976 241.059C275.948 241.059 278.713 241.059 281.27 241.059C283.827 241.059 286.592 241.059 289.564 241.059C289.564 238.018 289.564 235.253 289.564 232.765C289.564 230.276 289.564 227.512 289.564 224.471C286.592 224.471 283.827 224.471 281.27 224.471C278.713 224.471 275.948 224.471 272.976 224.471C272.976 227.512 272.976 230.276 272.976 232.765C272.976 235.253 272.976 238.018 272.976 241.059ZM272.976 241.059C275.948 241.059 278.713 241.059 281.27 241.059C283.827 241.059 286.592 241.059 289.564 241.059C289.564 238.018 289.564 235.253 289.564 232.765C289.564 230.276 289.564 227.512 289.564 224.471C286.592 224.471 283.827 224.471 281.27 224.471C278.713 224.471 275.948 224.471 272.976 224.471C272.976 227.512 272.976 230.276 272.976 232.765C272.976 235.253 272.976 238.018 272.976 241.059ZM272.976 241.059C275.948 241.059 278.713 241.059 281.27 241.059C283.827 241.059 286.592 241.059 289.564 241.059C289.564 238.018 289.564 235.253 289.564 232.765C289.564 230.276 289.564 227.512 289.564 224.471C286.592 224.471 283.827 224.471 281.27 224.471C278.713 224.471 275.948 224.471 272.976 224.471C272.976 227.512 272.976 230.276 272.976 232.765C272.976 235.253 272.976 238.018 272.976 241.059ZM272.976 241.059C275.948 241.059 278.713 241.059 281.27 241.059C283.827 241.059 286.592 241.059 289.564 241.059C289.564 238.018 289.564 235.253 289.564 232.765C289.564 230.276 289.564 227.512 289.564 224.471C286.592 224.471 283.827 224.471 281.27 224.471C278.713 224.471 275.948 224.471 272.976 224.471C272.976 227.512 272.976 230.276 272.976 232.765C272.976 235.253 272.976 238.018 272.976 241.059ZM206.623 224.471C209.595 224.471 212.36 224.471 214.917 224.471C217.474 224.471 220.239 224.471 223.211 224.471C223.211 221.429 223.211 218.665 223.211 216.176C223.211 213.688 223.211 210.924 223.211 207.882C220.239 207.882 217.474 207.882 214.917 207.882C212.36 207.882 209.595 207.882 206.623 207.882C206.623 210.924 206.623 213.688 206.623 216.176C206.623 218.665 206.623 221.429 206.623 224.471ZM206.623 224.471C209.595 224.471 212.36 224.471 214.917 224.471C217.474 224.471 220.239 224.471 223.211 224.471C223.211 221.429 223.211 218.665 223.211 216.176C223.211 213.688 223.211 210.924 223.211 207.882C220.239 207.882 217.474 207.882 214.917 207.882C212.36 207.882 209.595 207.882 206.623 207.882C206.623 210.924 206.623 213.688 206.623 216.176C206.623 218.665 206.623 221.429 206.623 224.471ZM206.623 224.471C209.595 224.471 212.36 224.471 214.917 224.471C217.474 224.471 220.239 224.471 223.211 224.471C223.211 221.429 223.211 218.665 223.211 216.176C223.211 213.688 223.211 210.924 223.211 207.882C220.239 207.882 217.474 207.882 214.917 207.882C212.36 207.882 209.595 207.882 206.623 207.882C206.623 210.924 206.623 213.688 206.623 216.176C206.623 218.665 206.623 221.429 206.623 224.471ZM206.623 224.471C209.595 224.471 212.36 224.471 214.917 224.471C217.474 224.471 220.239 224.471 223.211 224.471C223.211 221.429 223.211 218.665 223.211 216.176C223.211 213.688 223.211 210.924 223.211 207.882C220.239 207.882 217.474 207.882 214.917 207.882C212.36 207.882 209.595 207.882 206.623 207.882C206.623 210.924 206.623 213.688 206.623 216.176C206.623 218.665 206.623 221.429 206.623 224.471ZM206.623 224.471C209.595 224.471 212.36 224.471 214.917 224.471C217.474 224.471 220.239 224.471 223.211 224.471C223.211 221.429 223.211 218.665 223.211 216.176C223.211 213.688 223.211 210.924 223.211 207.882C220.239 207.882 217.474 207.882 214.917 207.882C212.36 207.882 209.595 207.882 206.623 207.882C206.623 210.924 206.623 213.688 206.623 216.176C206.623 218.665 206.623 221.429 206.623 224.471ZM206.623 224.471C209.595 224.471 212.36 224.471 214.917 224.471C217.474 224.471 220.239 224.471 223.211 224.471C223.211 221.429 223.211 218.665 223.211 216.176C223.211 213.688 223.211 210.924 223.211 207.882C220.239 207.882 217.474 207.882 214.917 207.882C212.36 207.882 209.595 207.882 206.623 207.882C206.623 210.924 206.623 213.688 206.623 216.176C206.623 218.665 206.623 221.429 206.623 224.471ZM206.623 224.471C209.595 224.471 212.36 224.471 214.917 224.471C217.474 224.471 220.239 224.471 223.211 224.471C223.211 221.429 223.211 218.665 223.211 216.176C223.211 213.688 223.211 210.924 223.211 207.882C220.239 207.882 217.474 207.882 214.917 207.882C212.36 207.882 209.595 207.882 206.623 207.882C206.623 210.924 206.623 213.688 206.623 216.176C206.623 218.665 206.623 221.429 206.623 224.471ZM206.623 224.471C209.595 224.471 212.36 224.471 214.917 224.471C217.474 224.471 220.239 224.471 223.211 224.471C223.211 221.429 223.211 218.665 223.211 216.176C223.211 213.688 223.211 210.924 223.211 207.882C220.239 207.882 217.474 207.882 214.917 207.882C212.36 207.882 209.595 207.882 206.623 207.882C206.623 210.924 206.623 213.688 206.623 216.176C206.623 218.665 206.623 221.429 206.623 224.471ZM206.623 224.471C209.595 224.471 212.36 224.471 214.917 224.471C217.474 224.471 220.239 224.471 223.211 224.471C223.211 221.429 223.211 218.665 223.211 216.176C223.211 213.688 223.211 210.924 223.211 207.882C220.239 207.882 217.474 207.882 214.917 207.882C212.36 207.882 209.595 207.882 206.623 207.882C206.623 210.924 206.623 213.688 206.623 216.176C206.623 218.665 206.623 221.429 206.623 224.471ZM256.388 224.471C259.36 224.471 262.124 224.471 264.682 224.471C267.239 224.471 270.004 224.471 272.976 224.471C272.976 221.429 272.976 218.665 272.976 216.176C272.976 213.688 272.976 210.924 272.976 207.882C270.004 207.882 267.239 207.882 264.682 207.882C262.124 207.882 259.36 207.882 256.388 207.882C256.388 210.924 256.388 213.688 256.388 216.176C256.388 218.665 256.388 221.429 256.388 224.471ZM256.388 224.471C259.36 224.471 262.124 224.471 264.682 224.471C267.239 224.471 270.004 224.471 272.976 224.471C272.976 221.429 272.976 218.665 272.976 216.176C272.976 213.688 272.976 210.924 272.976 207.882C270.004 207.882 267.239 207.882 264.682 207.882C262.124 207.882 259.36 207.882 256.388 207.882C256.388 210.924 256.388 213.688 256.388 216.176C256.388 218.665 256.388 221.429 256.388 224.471ZM256.388 224.471C259.36 224.471 262.124 224.471 264.682 224.471C267.239 224.471 270.004 224.471 272.976 224.471C272.976 221.429 272.976 218.665 272.976 216.176C272.976 213.688 272.976 210.924 272.976 207.882C270.004 207.882 267.239 207.882 264.682 207.882C262.124 207.882 259.36 207.882 256.388 207.882C256.388 210.924 256.388 213.688 256.388 216.176C256.388 218.665 256.388 221.429 256.388 224.471ZM256.388 224.471C259.36 224.471 262.124 224.471 264.682 224.471C267.239 224.471 270.004 224.471 272.976 224.471C272.976 221.429 272.976 218.665 272.976 216.176C272.976 213.688 272.976 210.924 272.976 207.882C270.004 207.882 267.239 207.882 264.682 207.882C262.124 207.882 259.36 207.882 256.388 207.882C256.388 210.924 256.388 213.688 256.388 216.176C256.388 218.665 256.388 221.429 256.388 224.471ZM256.388 224.471C259.36 224.471 262.124 224.471 264.682 224.471C267.239 224.471 270.004 224.471 272.976 224.471C272.976 221.429 272.976 218.665 272.976 216.176C272.976 213.688 272.976 210.924 272.976 207.882C270.004 207.882 267.239 207.882 264.682 207.882C262.124 207.882 259.36 207.882 256.388 207.882C256.388 210.924 256.388 213.688 256.388 216.176C256.388 218.665 256.388 221.429 256.388 224.471ZM256.388 224.471C259.36 224.471 262.124 224.471 264.682 224.471C267.239 224.471 270.004 224.471 272.976 224.471C272.976 221.429 272.976 218.665 272.976 216.176C272.976 213.688 272.976 210.924 272.976 207.882C270.004 207.882 267.239 207.882 264.682 207.882C262.124 207.882 259.36 207.882 256.388 207.882C256.388 210.924 256.388 213.688 256.388 216.176C256.388 218.665 256.388 221.429 256.388 224.471ZM256.388 224.471C259.36 224.471 262.124 224.471 264.682 224.471C267.239 224.471 270.004 224.471 272.976 224.471C272.976 221.429 272.976 218.665 272.976 216.176C272.976 213.688 272.976 210.924 272.976 207.882C270.004 207.882 267.239 207.882 264.682 207.882C262.124 207.882 259.36 207.882 256.388 207.882C256.388 210.924 256.388 213.688 256.388 216.176C256.388 218.665 256.388 221.429 256.388 224.471ZM256.388 224.471C259.36 224.471 262.124 224.471 264.682 224.471C267.239 224.471 270.004 224.471 272.976 224.471C272.976 221.429 272.976 218.665 272.976 216.176C272.976 213.688 272.976 210.924 272.976 207.882C270.004 207.882 267.239 207.882 264.682 207.882C262.124 207.882 259.36 207.882 256.388 207.882C256.388 210.924 256.388 213.688 256.388 216.176C256.388 218.665 256.388 221.429 256.388 224.471ZM256.388 224.471C259.36 224.471 262.124 224.471 264.682 224.471C267.239 224.471 270.004 224.471 272.976 224.471C272.976 221.429 272.976 218.665 272.976 216.176C272.976 213.688 272.976 210.924 272.976 207.882C270.004 207.882 267.239 207.882 264.682 207.882C262.124 207.882 259.36 207.882 256.388 207.882C256.388 210.924 256.388 213.688 256.388 216.176C256.388 218.665 256.388 221.429 256.388 224.471ZM272.976 224.471C275.948 224.471 278.713 224.471 281.27 224.471C283.827 224.471 286.592 224.471 289.564 224.471C289.564 221.429 289.564 218.665 289.564 216.176C289.564 213.688 289.564 210.924 289.564 207.882C286.592 207.882 283.827 207.882 281.27 207.882C278.713 207.882 275.948 207.882 272.976 207.882C272.976 210.924 272.976 213.688 272.976 216.176C272.976 218.665 272.976 221.429 272.976 224.471ZM272.976 224.471C275.948 224.471 278.713 224.471 281.27 224.471C283.827 224.471 286.592 224.471 289.564 224.471C289.564 221.429 289.564 218.665 289.564 216.176C289.564 213.688 289.564 210.924 289.564 207.882C286.592 207.882 283.827 207.882 281.27 207.882C278.713 207.882 275.948 207.882 272.976 207.882C272.976 210.924 272.976 213.688 272.976 216.176C272.976 218.665 272.976 221.429 272.976 224.471ZM272.976 224.471C275.948 224.471 278.713 224.471 281.27 224.471C283.827 224.471 286.592 224.471 289.564 224.471C289.564 221.429 289.564 218.665 289.564 216.176C289.564 213.688 289.564 210.924 289.564 207.882C286.592 207.882 283.827 207.882 281.27 207.882C278.713 207.882 275.948 207.882 272.976 207.882C272.976 210.924 272.976 213.688 272.976 216.176C272.976 218.665 272.976 221.429 272.976 224.471ZM272.976 224.471C275.948 224.471 278.713 224.471 281.27 224.471C283.827 224.471 286.592 224.471 289.564 224.471C289.564 221.429 289.564 218.665 289.564 216.176C289.564 213.688 289.564 210.924 289.564 207.882C286.592 207.882 283.827 207.882 281.27 207.882C278.713 207.882 275.948 207.882 272.976 207.882C272.976 210.924 272.976 213.688 272.976 216.176C272.976 218.665 272.976 221.429 272.976 224.471ZM272.976 224.471C275.948 224.471 278.713 224.471 281.27 224.471C283.827 224.471 286.592 224.471 289.564 224.471C289.564 221.429 289.564 218.665 289.564 216.176C289.564 213.688 289.564 210.924 289.564 207.882C286.592 207.882 283.827 207.882 281.27 207.882C278.713 207.882 275.948 207.882 272.976 207.882C272.976 210.924 272.976 213.688 272.976 216.176C272.976 218.665 272.976 221.429 272.976 224.471ZM272.976 224.471C275.948 224.471 278.713 224.471 281.27 224.471C283.827 224.471 286.592 224.471 289.564 224.471C289.564 221.429 289.564 218.665 289.564 216.176C289.564 213.688 289.564 210.924 289.564 207.882C286.592 207.882 283.827 207.882 281.27 207.882C278.713 207.882 275.948 207.882 272.976 207.882C272.976 210.924 272.976 213.688 272.976 216.176C272.976 218.665 272.976 221.429 272.976 224.471ZM272.976 224.471C275.948 224.471 278.713 224.471 281.27 224.471C283.827 224.471 286.592 224.471 289.564 224.471C289.564 221.429 289.564 218.665 289.564 216.176C289.564 213.688 289.564 210.924 289.564 207.882C286.592 207.882 283.827 207.882 281.27 207.882C278.713 207.882 275.948 207.882 272.976 207.882C272.976 210.924 272.976 213.688 272.976 216.176C272.976 218.665 272.976 221.429 272.976 224.471ZM272.976 224.471C275.948 224.471 278.713 224.471 281.27 224.471C283.827 224.471 286.592 224.471 289.564 224.471C289.564 221.429 289.564 218.665 289.564 216.176C289.564 213.688 289.564 210.924 289.564 207.882C286.592 207.882 283.827 207.882 281.27 207.882C278.713 207.882 275.948 207.882 272.976 207.882C272.976 210.924 272.976 213.688 272.976 216.176C272.976 218.665 272.976 221.429 272.976 224.471ZM272.976 224.471C275.948 224.471 278.713 224.471 281.27 224.471C283.827 224.471 286.592 224.471 289.564 224.471C289.564 221.429 289.564 218.665 289.564 216.176C289.564 213.688 289.564 210.924 289.564 207.882C286.592 207.882 283.827 207.882 281.27 207.882C278.713 207.882 275.948 207.882 272.976 207.882C272.976 210.924 272.976 213.688 272.976 216.176C272.976 218.665 272.976 221.429 272.976 224.471ZM223.211 207.882C226.183 207.882 228.948 207.882 231.505 207.882C234.063 207.882 236.827 207.882 239.799 207.882C239.799 204.841 239.799 202.076 239.799 199.588C239.799 197.1 239.799 194.335 239.799 191.294C236.827 191.294 234.063 191.294 231.505 191.294C228.948 191.294 226.183 191.294 223.211 191.294C223.211 194.335 223.211 197.1 223.211 199.588C223.211 202.076 223.211 204.841 223.211 207.882ZM223.211 207.882C226.183 207.882 228.948 207.882 231.505 207.882C234.063 207.882 236.827 207.882 239.799 207.882C239.799 204.841 239.799 202.076 239.799 199.588C239.799 197.1 239.799 194.335 239.799 191.294C236.827 191.294 234.063 191.294 231.505 191.294C228.948 191.294 226.183 191.294 223.211 191.294C223.211 194.335 223.211 197.1 223.211 199.588C223.211 202.076 223.211 204.841 223.211 207.882ZM223.211 207.882C226.183 207.882 228.948 207.882 231.505 207.882C234.063 207.882 236.827 207.882 239.799 207.882C239.799 204.841 239.799 202.076 239.799 199.588C239.799 197.1 239.799 194.335 239.799 191.294C236.827 191.294 234.063 191.294 231.505 191.294C228.948 191.294 226.183 191.294 223.211 191.294C223.211 194.335 223.211 197.1 223.211 199.588C223.211 202.076 223.211 204.841 223.211 207.882ZM223.211 207.882C226.183 207.882 228.948 207.882 231.505 207.882C234.063 207.882 236.827 207.882 239.799 207.882C239.799 204.841 239.799 202.076 239.799 199.588C239.799 197.1 239.799 194.335 239.799 191.294C236.827 191.294 234.063 191.294 231.505 191.294C228.948 191.294 226.183 191.294 223.211 191.294C223.211 194.335 223.211 197.1 223.211 199.588C223.211 202.076 223.211 204.841 223.211 207.882ZM223.211 207.882C226.183 207.882 228.948 207.882 231.505 207.882C234.063 207.882 236.827 207.882 239.799 207.882C239.799 204.841 239.799 202.076 239.799 199.588C239.799 197.1 239.799 194.335 239.799 191.294C236.827 191.294 234.063 191.294 231.505 191.294C228.948 191.294 226.183 191.294 223.211 191.294C223.211 194.335 223.211 197.1 223.211 199.588C223.211 202.076 223.211 204.841 223.211 207.882ZM223.211 207.882C226.183 207.882 228.948 207.882 231.505 207.882C234.063 207.882 236.827 207.882 239.799 207.882C239.799 204.841 239.799 202.076 239.799 199.588C239.799 197.1 239.799 194.335 239.799 191.294C236.827 191.294 234.063 191.294 231.505 191.294C228.948 191.294 226.183 191.294 223.211 191.294C223.211 194.335 223.211 197.1 223.211 199.588C223.211 202.076 223.211 204.841 223.211 207.882ZM223.211 207.882C226.183 207.882 228.948 207.882 231.505 207.882C234.063 207.882 236.827 207.882 239.799 207.882C239.799 204.841 239.799 202.076 239.799 199.588C239.799 197.1 239.799 194.335 239.799 191.294C236.827 191.294 234.063 191.294 231.505 191.294C228.948 191.294 226.183 191.294 223.211 191.294C223.211 194.335 223.211 197.1 223.211 199.588C223.211 202.076 223.211 204.841 223.211 207.882ZM223.211 207.882C226.183 207.882 228.948 207.882 231.505 207.882C234.063 207.882 236.827 207.882 239.799 207.882C239.799 204.841 239.799 202.076 239.799 199.588C239.799 197.1 239.799 194.335 239.799 191.294C236.827 191.294 234.063 191.294 231.505 191.294C228.948 191.294 226.183 191.294 223.211 191.294C223.211 194.335 223.211 197.1 223.211 199.588C223.211 202.076 223.211 204.841 223.211 207.882ZM223.211 207.882C226.183 207.882 228.948 207.882 231.505 207.882C234.063 207.882 236.827 207.882 239.799 207.882C239.799 204.841 239.799 202.076 239.799 199.588C239.799 197.1 239.799 194.335 239.799 191.294C236.827 191.294 234.063 191.294 231.505 191.294C228.948 191.294 226.183 191.294 223.211 191.294C223.211 194.335 223.211 197.1 223.211 199.588C223.211 202.076 223.211 204.841 223.211 207.882ZM239.799 207.882C242.771 207.882 245.536 207.882 248.093 207.882C250.651 207.882 253.415 207.882 256.388 207.882C256.388 204.841 256.388 202.076 256.388 199.588C256.388 197.1 256.388 194.335 256.388 191.294C253.415 191.294 250.651 191.294 248.093 191.294C245.536 191.294 242.771 191.294 239.799 191.294C239.799 194.335 239.799 197.1 239.799 199.588C239.799 202.076 239.799 204.841 239.799 207.882ZM239.799 207.882C242.771 207.882 245.536 207.882 248.093 207.882C250.651 207.882 253.415 207.882 256.388 207.882C256.388 204.841 256.388 202.076 256.388 199.588C256.388 197.1 256.388 194.335 256.388 191.294C253.415 191.294 250.651 191.294 248.093 191.294C245.536 191.294 242.771 191.294 239.799 191.294C239.799 194.335 239.799 197.1 239.799 199.588C239.799 202.076 239.799 204.841 239.799 207.882ZM239.799 207.882C242.771 207.882 245.536 207.882 248.093 207.882C250.651 207.882 253.415 207.882 256.388 207.882C256.388 204.841 256.388 202.076 256.388 199.588C256.388 197.1 256.388 194.335 256.388 191.294C253.415 191.294 250.651 191.294 248.093 191.294C245.536 191.294 242.771 191.294 239.799 191.294C239.799 194.335 239.799 197.1 239.799 199.588C239.799 202.076 239.799 204.841 239.799 207.882ZM239.799 207.882C242.771 207.882 245.536 207.882 248.093 207.882C250.651 207.882 253.415 207.882 256.388 207.882C256.388 204.841 256.388 202.076 256.388 199.588C256.388 197.1 256.388 194.335 256.388 191.294C253.415 191.294 250.651 191.294 248.093 191.294C245.536 191.294 242.771 191.294 239.799 191.294C239.799 194.335 239.799 197.1 239.799 199.588C239.799 202.076 239.799 204.841 239.799 207.882ZM239.799 207.882C242.771 207.882 245.536 207.882 248.093 207.882C250.651 207.882 253.415 207.882 256.388 207.882C256.388 204.841 256.388 202.076 256.388 199.588C256.388 197.1 256.388 194.335 256.388 191.294C253.415 191.294 250.651 191.294 248.093 191.294C245.536 191.294 242.771 191.294 239.799 191.294C239.799 194.335 239.799 197.1 239.799 199.588C239.799 202.076 239.799 204.841 239.799 207.882ZM239.799 207.882C242.771 207.882 245.536 207.882 248.093 207.882C250.651 207.882 253.415 207.882 256.388 207.882C256.388 204.841 256.388 202.076 256.388 199.588C256.388 197.1 256.388 194.335 256.388 191.294C253.415 191.294 250.651 191.294 248.093 191.294C245.536 191.294 242.771 191.294 239.799 191.294C239.799 194.335 239.799 197.1 239.799 199.588C239.799 202.076 239.799 204.841 239.799 207.882ZM239.799 207.882C242.771 207.882 245.536 207.882 248.093 207.882C250.651 207.882 253.415 207.882 256.388 207.882C256.388 204.841 256.388 202.076 256.388 199.588C256.388 197.1 256.388 194.335 256.388 191.294C253.415 191.294 250.651 191.294 248.093 191.294C245.536 191.294 242.771 191.294 239.799 191.294C239.799 194.335 239.799 197.1 239.799 199.588C239.799 202.076 239.799 204.841 239.799 207.882ZM239.799 207.882C242.771 207.882 245.536 207.882 248.093 207.882C250.651 207.882 253.415 207.882 256.388 207.882C256.388 204.841 256.388 202.076 256.388 199.588C256.388 197.1 256.388 194.335 256.388 191.294C253.415 191.294 250.651 191.294 248.093 191.294C245.536 191.294 242.771 191.294 239.799 191.294C239.799 194.335 239.799 197.1 239.799 199.588C239.799 202.076 239.799 204.841 239.799 207.882ZM239.799 207.882C242.771 207.882 245.536 207.882 248.093 207.882C250.651 207.882 253.415 207.882 256.388 207.882C256.388 204.841 256.388 202.076 256.388 199.588C256.388 197.1 256.388 194.335 256.388 191.294C253.415 191.294 250.651 191.294 248.093 191.294C245.536 191.294 242.771 191.294 239.799 191.294C239.799 194.335 239.799 197.1 239.799 199.588C239.799 202.076 239.799 204.841 239.799 207.882ZM272.976 207.882C275.948 207.882 278.713 207.882 281.27 207.882C283.827 207.882 286.592 207.882 289.564 207.882C289.564 204.841 289.564 202.076 289.564 199.588C289.564 197.1 289.564 194.335 289.564 191.294C286.592 191.294 283.827 191.294 281.27 191.294C278.713 191.294 275.948 191.294 272.976 191.294C272.976 194.335 272.976 197.1 272.976 199.588C272.976 202.076 272.976 204.841 272.976 207.882ZM272.976 207.882C275.948 207.882 278.713 207.882 281.27 207.882C283.827 207.882 286.592 207.882 289.564 207.882C289.564 204.841 289.564 202.076 289.564 199.588C289.564 197.1 289.564 194.335 289.564 191.294C286.592 191.294 283.827 191.294 281.27 191.294C278.713 191.294 275.948 191.294 272.976 191.294C272.976 194.335 272.976 197.1 272.976 199.588C272.976 202.076 272.976 204.841 272.976 207.882ZM272.976 207.882C275.948 207.882 278.713 207.882 281.27 207.882C283.827 207.882 286.592 207.882 289.564 207.882C289.564 204.841 289.564 202.076 289.564 199.588C289.564 197.1 289.564 194.335 289.564 191.294C286.592 191.294 283.827 191.294 281.27 191.294C278.713 191.294 275.948 191.294 272.976 191.294C272.976 194.335 272.976 197.1 272.976 199.588C272.976 202.076 272.976 204.841 272.976 207.882ZM272.976 207.882C275.948 207.882 278.713 207.882 281.27 207.882C283.827 207.882 286.592 207.882 289.564 207.882C289.564 204.841 289.564 202.076 289.564 199.588C289.564 197.1 289.564 194.335 289.564 191.294C286.592 191.294 283.827 191.294 281.27 191.294C278.713 191.294 275.948 191.294 272.976 191.294C272.976 194.335 272.976 197.1 272.976 199.588C272.976 202.076 272.976 204.841 272.976 207.882ZM272.976 207.882C275.948 207.882 278.713 207.882 281.27 207.882C283.827 207.882 286.592 207.882 289.564 207.882C289.564 204.841 289.564 202.076 289.564 199.588C289.564 197.1 289.564 194.335 289.564 191.294C286.592 191.294 283.827 191.294 281.27 191.294C278.713 191.294 275.948 191.294 272.976 191.294C272.976 194.335 272.976 197.1 272.976 199.588C272.976 202.076 272.976 204.841 272.976 207.882ZM272.976 207.882C275.948 207.882 278.713 207.882 281.27 207.882C283.827 207.882 286.592 207.882 289.564 207.882C289.564 204.841 289.564 202.076 289.564 199.588C289.564 197.1 289.564 194.335 289.564 191.294C286.592 191.294 283.827 191.294 281.27 191.294C278.713 191.294 275.948 191.294 272.976 191.294C272.976 194.335 272.976 197.1 272.976 199.588C272.976 202.076 272.976 204.841 272.976 207.882ZM272.976 207.882C275.948 207.882 278.713 207.882 281.27 207.882C283.827 207.882 286.592 207.882 289.564 207.882C289.564 204.841 289.564 202.076 289.564 199.588C289.564 197.1 289.564 194.335 289.564 191.294C286.592 191.294 283.827 191.294 281.27 191.294C278.713 191.294 275.948 191.294 272.976 191.294C272.976 194.335 272.976 197.1 272.976 199.588C272.976 202.076 272.976 204.841 272.976 207.882ZM272.976 207.882C275.948 207.882 278.713 207.882 281.27 207.882C283.827 207.882 286.592 207.882 289.564 207.882C289.564 204.841 289.564 202.076 289.564 199.588C289.564 197.1 289.564 194.335 289.564 191.294C286.592 191.294 283.827 191.294 281.27 191.294C278.713 191.294 275.948 191.294 272.976 191.294C272.976 194.335 272.976 197.1 272.976 199.588C272.976 202.076 272.976 204.841 272.976 207.882ZM272.976 207.882C275.948 207.882 278.713 207.882 281.27 207.882C283.827 207.882 286.592 207.882 289.564 207.882C289.564 204.841 289.564 202.076 289.564 199.588C289.564 197.1 289.564 194.335 289.564 191.294C286.592 191.294 283.827 191.294 281.27 191.294C278.713 191.294 275.948 191.294 272.976 191.294C272.976 194.335 272.976 197.1 272.976 199.588C272.976 202.076 272.976 204.841 272.976 207.882Z" fill="#9E7777"/>
</g>
</svg>
